<svg width="24" height="24" viewBox="0 0 24 24" fill="none" xmlns="http://www.w3.org/2000/svg">
<path d="M9.50424 8.49619C9.50424 7.90419 9.30824 7.38419 8.91624 6.93619C8.52424 6.48819 8.04824 6.20819 7.48824 6.09619V4.00819H6.50424V6.09619C5.94424 6.20819 5.46824 6.48819 5.07624 6.93619C4.68424 7.38419 4.49224 7.90419 4.50024 8.49619C4.50824 9.08819 4.70424 9.61219 5.08824 10.0682C5.47224 10.5242 5.94424 10.8002 6.50424 10.8962V19.9922H7.51224V10.8962C8.05624 10.8002 8.52424 10.5242 8.91624 10.0682C9.30824 9.61219 9.50424 9.08819 9.50424 8.49619ZM7.00824 10.0082C6.60824 10.0082 6.25624 9.85619 5.95224 9.55219C5.64824 9.24819 5.49624 8.89619 5.49624 8.49619C5.49624 8.09619 5.64824 7.74819 5.95224 7.45219C6.25624 7.15619 6.60824 7.00819 7.00824 7.00819C7.40824 7.00819 7.75624 7.15619 8.05224 7.45219C8.34824 7.74819 8.49624 8.09619 8.49624 8.49619C8.49624 8.89619 8.34824 9.24819 8.05224 9.55219C7.75624 9.85619 7.40824 10.0082 7.00824 10.0082ZM12.5042 13.1042V4.00819H11.4962V13.1042C10.9362 13.2002 10.4642 13.4762 10.0802 13.9322C9.69624 14.3882 9.50424 14.9122 9.50424 15.5042C9.50424 16.0962 9.69624 16.6162 10.0802 17.0642C10.4642 17.5122 10.9362 17.7922 11.4962 17.9042V19.9922H12.5042V17.9042C13.0642 17.7922 13.5362 17.5122 13.9202 17.0642C14.3042 16.6162 14.4962 16.0962 14.4962 15.5042C14.4962 14.9122 14.3042 14.3882 13.9202 13.9322C13.5362 13.4762 13.0642 13.2002 12.5042 13.1042ZM12.0002 16.9922C11.6002 16.9922 11.2482 16.8442 10.9442 16.5482C10.6402 16.2522 10.4922 15.9042 10.5002 15.5042C10.5082 15.1042 10.6602 14.7522 10.9562 14.4482C11.2522 14.1442 11.6002 13.9922 12.0002 13.9922C12.4002 13.9922 12.7522 14.1442 13.0562 14.4482C13.3602 14.7522 13.5122 15.1042 13.5122 15.5042C13.5122 15.9042 13.3602 16.2522 13.0562 16.5482C12.7522 16.8442 12.4002 16.9922 12.0002 16.9922ZM19.5122 10.4882C19.5122 9.91219 19.3162 9.39619 18.9242 8.94019C18.5322 8.48419 18.0562 8.20819 17.4962 8.11219V4.00819H16.5122V8.08819C15.9522 8.20019 15.4762 8.48419 15.0842 8.94019C14.6922 9.39619 14.4962 9.91619 14.4962 10.5002C14.4962 11.0842 14.6922 11.6042 15.0842 12.0602C15.4762 12.5162 15.9522 12.7922 16.5122 12.8882V19.9922H17.4962V12.8882C18.0562 12.7922 18.5322 12.5162 18.9242 12.0602C19.3162 11.6042 19.5122 11.0802 19.5122 10.4882ZM16.9922 12.0002C16.5922 12.0002 16.2442 11.8482 15.9482 11.5442C15.6522 11.2402 15.5042 10.8882 15.5042 10.4882C15.5042 10.0882 15.6522 9.74019 15.9482 9.44419C16.2442 9.14819 16.5922 9.00019 16.9922 9.00019C17.3922 9.00019 17.7442 9.14819 18.0482 9.44419C18.3522 9.74019 18.5042 10.0922 18.5042 10.5002C18.5042 10.9082 18.3522 11.2602 18.0482 11.5562C17.7442 11.8522 17.3922 12.0002 16.9922 12.0002Z" fill="#007CFF"/>
</svg>
