<svg width="24" height="24" viewBox="0 0 24 24" fill="none" xmlns="http://www.w3.org/2000/svg">
<path fill-rule="evenodd" clip-rule="evenodd" d="M1.20837 12.3923C1.20837 20.4854 3.90687 23.1839 12 23.1839C20.0932 23.1839 22.7917 20.4854 22.7917 12.3923C22.7917 4.29909 20.0932 1.60059 12 1.60059C3.90687 1.60059 1.20837 4.29909 1.20837 12.3923Z" stroke="#007CFF" stroke-width="1.5" stroke-linecap="round" stroke-linejoin="round"/>
<path fill-rule="evenodd" clip-rule="evenodd" d="M10.3651 8.64044C10.3651 9.7756 9.44577 10.6949 8.3106 10.6949C7.1766 10.6949 6.2561 9.7756 6.2561 8.64044C6.2561 7.50527 7.1766 6.58594 8.3106 6.58594C9.44577 6.58594 10.3651 7.50527 10.3651 8.64044Z" stroke="#007CFF" stroke-width="1.5" stroke-linecap="round" stroke-linejoin="round"/>
<path d="M22.6401 15.5027C21.6123 14.4457 20.1586 12.3096 17.4881 12.3096C14.8176 12.3096 14.7593 17.0206 12.0339 17.0206C9.30745 17.0206 8.20962 15.4211 6.43278 16.2564C4.65712 17.0906 3.21045 20.4109 3.21045 20.4109" stroke="#007CFF" stroke-width="1.5" stroke-linecap="round" stroke-linejoin="round"/>
</svg>
