<svg width="110" height="126" viewBox="0 0 110 126" fill="none" xmlns="http://www.w3.org/2000/svg">
<path d="M15.3581 62.3294C14.0202 67.9555 13.907 73.5585 15.0185 79.1384C16.13 84.7182 18.3786 89.9112 21.7642 94.7173C21.783 94.1502 21.8438 93.6502 21.9467 93.2175L22.2941 91.7569C23.1174 88.2947 24.5487 85.2056 26.588 82.4898C28.6272 79.7741 31.2066 77.4725 34.3262 75.5852L57.2386 62.0009L71.583 84.4453C73.5189 87.5348 74.7861 90.7512 75.3845 94.0942C75.9829 97.4373 75.8704 100.84 75.0471 104.302L74.6997 105.763C74.5968 106.196 74.4261 106.669 74.1875 107.184C79.3742 104.417 83.7198 100.792 87.2242 96.3097C90.7286 91.8275 93.1497 86.7734 94.4877 81.1473C95.7741 75.7376 95.9733 70.3837 95.0851 65.0856C94.1969 59.7874 92.2797 54.7876 89.3337 50.086C86.8012 50.9698 84.2424 51.4759 81.6573 51.6041C79.0722 51.7324 76.5158 51.496 73.988 50.8949C67.1741 49.2744 61.7943 45.6516 57.8487 40.0265C53.903 34.4014 52.3175 28.2515 53.0919 21.5769C47.9567 24.128 43.2838 26.932 39.0733 29.9888C34.8629 33.0456 31.1616 36.2806 27.9694 39.6939C24.7773 43.1072 22.1154 46.7323 19.9837 50.5693C17.852 54.4062 16.3101 58.3263 15.3581 62.3294ZM52.916 80.1775L41.358 87.0312C39.8661 87.9338 38.6103 89.0641 37.5907 90.422C36.571 91.7799 35.8683 93.2703 35.4823 94.8932C34.659 98.3554 35.2427 101.638 37.2337 104.74C39.2246 107.843 42.0334 109.826 45.6602 110.688C49.287 111.551 52.6876 111.045 55.8621 109.171C59.0366 107.296 61.0355 104.628 61.8588 101.166C62.2705 99.4347 62.3203 97.7604 62.0082 96.143C61.6962 94.5256 61.0772 92.978 60.1513 91.5004L52.916 80.1775ZM71.9045 0.330421L66.81 21.7528C65.9352 25.4314 66.4933 28.822 68.4842 31.9247C70.4751 35.0273 73.3389 37.023 77.0756 37.9116C79.0538 38.382 80.9912 38.4141 82.8876 38.0077C84.7841 37.6014 86.5847 36.7436 88.2894 35.4343L92.1059 32.5696C99.158 39.0478 104.082 46.9061 106.878 56.1445C109.674 65.3829 109.94 74.7626 107.676 84.2836C104.228 98.7816 96.1974 109.846 83.5836 117.478C70.9698 125.109 57.2995 127.174 42.5726 123.671C27.8457 120.169 16.5683 112.172 8.74025 99.6791C0.912213 87.1864 -1.27791 73.6911 2.16987 59.1931C5.48901 45.2361 13.3942 33.1127 25.8853 22.823C38.3765 12.5333 53.7162 5.03575 71.9045 0.330421Z" fill="#FFE9D7"/>
</svg>
