<svg width="16" height="21" viewBox="0 0 16 21" fill="none" xmlns="http://www.w3.org/2000/svg">
<path fill-rule="evenodd" clip-rule="evenodd" d="M8.34455 19.779C4.65273 19.779 1.5 19.2335 1.5 17.0489C1.5 14.8643 4.63273 12.8477 8.34455 12.8477C12.0364 12.8477 15.1891 14.8448 15.1891 17.0294C15.1891 19.2131 12.0564 19.779 8.34455 19.779Z" stroke="#2A81DD" stroke-width="1.5" stroke-linecap="round" stroke-linejoin="round"/>
<path fill-rule="evenodd" clip-rule="evenodd" d="M8.33652 9.82076C10.7592 9.82076 12.7229 7.9563 12.7229 5.65593C12.7229 3.35556 10.7592 1.49023 8.33652 1.49023C5.91379 1.49023 3.94924 3.35556 3.94924 5.65593C3.94106 7.94853 5.89106 9.81299 8.30561 9.82076C8.31652 9.82076 8.32652 9.82076 8.33652 9.82076Z" stroke="#2A81DD" stroke-width="1.5" stroke-linecap="round" stroke-linejoin="round"/>
</svg>
