<svg width="24" height="24" viewBox="0 0 24 24" fill="none" xmlns="http://www.w3.org/2000/svg">
<path fill-rule="evenodd" clip-rule="evenodd" d="M12.0015 2.50098C12.0013 2.50098 12.0012 2.50098 12.001 2.50098C10.3845 2.50098 9.74222 4.12487 9.17462 5.55986L9.17299 5.56398C8.88299 6.29798 8.58299 7.05698 8.20099 7.45298C7.82553 7.84039 6.93231 7.88561 6.06662 7.92944L6.05599 7.92998L6.05386 7.93008C4.67323 7.99906 2.9568 8.08482 2.56999 9.72998C2.20304 11.2918 3.34968 12.2367 4.36158 13.0706L4.36199 13.071C5.05399 13.641 5.70799 14.181 5.85299 14.841C5.99383 15.4812 5.78249 16.3081 5.57771 17.1092L5.57699 17.112L5.57614 17.1153C5.22435 18.4935 4.82607 20.0538 6.15999 21.06C6.57699 21.375 6.99999 21.5 7.41799 21.5C8.32299 21.5 9.20499 20.916 9.95999 20.416L9.96579 20.4121C10.663 19.9513 11.3837 19.475 12.001 19.475C12.0012 19.475 12.0013 19.475 12.0015 19.475V2.50098Z" fill="#F1C40F"/>
<path opacity="0.4" fill-rule="evenodd" clip-rule="evenodd" d="M12.0024 2.50098C12.0026 2.50098 12.0028 2.50098 12.0029 2.50098C13.6194 2.50098 14.2617 4.12487 14.8293 5.55986L14.8309 5.56398C15.1209 6.29798 15.4209 7.05698 15.8029 7.45298C16.1784 7.84039 17.0716 7.88561 17.9373 7.92944L17.9479 7.92998L17.95 7.93008C19.3307 7.99906 21.0471 8.08482 21.4339 9.72998C21.8009 11.2918 20.6542 12.2367 19.6423 13.0706L19.6419 13.071C18.9499 13.641 18.2959 14.181 18.1509 14.841C18.0101 15.4812 18.2214 16.3081 18.4262 17.1092L18.4269 17.112L18.4278 17.1153C18.7796 18.4935 19.1778 20.0538 17.8439 21.06C17.4269 21.375 17.0039 21.5 16.5859 21.5C15.6809 21.5 14.7989 20.916 14.0439 20.416L14.0381 20.4121C13.3409 19.9513 12.6202 19.475 12.0029 19.475C12.0028 19.475 12.0026 19.475 12.0024 19.475V2.50098Z" fill="#F1C40F"/>
</svg>
