<svg width="18" height="19" viewBox="0 0 18 19" fill="none" xmlns="http://www.w3.org/2000/svg">
<mask id="mask0_1518_18479" style="mask-type:alpha" maskUnits="userSpaceOnUse" x="0" y="0" width="18" height="19">
<rect y="0.395508" width="18" height="18" fill="#D9D9D9"/>
</mask>
<g mask="url(#mask0_1518_18479)">
<path d="M9 12.3955C9.9375 12.3955 10.7344 12.0674 11.3906 11.4111C12.0469 10.7549 12.375 9.95801 12.375 9.02051C12.375 8.08301 12.0469 7.28613 11.3906 6.62988C10.7344 5.97363 9.9375 5.64551 9 5.64551C8.0625 5.64551 7.26562 5.97363 6.60938 6.62988C5.95312 7.28613 5.625 8.08301 5.625 9.02051C5.625 9.95801 5.95312 10.7549 6.60938 11.4111C7.26562 12.0674 8.0625 12.3955 9 12.3955ZM9 11.0455C8.4375 11.0455 7.95938 10.8486 7.56563 10.4549C7.17188 10.0611 6.975 9.58301 6.975 9.02051C6.975 8.45801 7.17188 7.97988 7.56563 7.58613C7.95938 7.19238 8.4375 6.99551 9 6.99551C9.5625 6.99551 10.0406 7.19238 10.4344 7.58613C10.8281 7.97988 11.025 8.45801 11.025 9.02051C11.025 9.58301 10.8281 10.0611 10.4344 10.4549C10.0406 10.8486 9.5625 11.0455 9 11.0455ZM9 14.6455C7.175 14.6455 5.5125 14.1361 4.0125 13.1174C2.5125 12.0986 1.425 10.733 0.75 9.02051C1.425 7.30801 2.5125 5.94238 4.0125 4.92363C5.5125 3.90488 7.175 3.39551 9 3.39551C10.825 3.39551 12.4875 3.90488 13.9875 4.92363C15.4875 5.94238 16.575 7.30801 17.25 9.02051C16.575 10.733 15.4875 12.0986 13.9875 13.1174C12.4875 14.1361 10.825 14.6455 9 14.6455ZM9 13.1455C10.4125 13.1455 11.7094 12.7736 12.8906 12.0299C14.0719 11.2861 14.975 10.283 15.6 9.02051C14.975 7.75801 14.0719 6.75488 12.8906 6.01113C11.7094 5.26738 10.4125 4.89551 9 4.89551C7.5875 4.89551 6.29063 5.26738 5.10938 6.01113C3.92812 6.75488 3.025 7.75801 2.4 9.02051C3.025 10.283 3.92812 11.2861 5.10938 12.0299C6.29063 12.7736 7.5875 13.1455 9 13.1455Z" fill="#007CFF"/>
</g>
</svg>
