<svg width="93" height="92" viewBox="0 0 93 92" fill="none" xmlns="http://www.w3.org/2000/svg">
<rect x="0.5625" y="0.000976562" width="91.56" height="91.56" rx="20" fill="#2787F5"/>
<path fill-rule="evenodd" clip-rule="evenodd" d="M73.0567 32.5978C73.4436 31.3874 73.0567 30.498 71.2152 30.498H65.1257C63.5774 30.498 62.8636 31.2664 62.4764 32.1136C62.4764 32.1136 59.3797 39.1942 54.9929 43.7935C53.5736 45.1249 52.9284 45.5485 52.1542 45.5485C51.7672 45.5485 51.2069 45.1249 51.2069 43.9146V32.5978C51.2069 31.1454 50.7575 30.498 49.4671 30.498H39.898C38.9304 30.498 38.3485 31.1722 38.3485 31.811C38.3485 33.1879 40.5418 33.5055 40.7679 37.3787V45.7907C40.7679 47.635 40.4128 47.9693 39.6387 47.9693C37.5743 47.9693 32.5528 40.8571 29.5745 32.7188C28.9909 31.137 28.4055 30.498 26.8492 30.498H20.7597C19.0199 30.498 18.6719 31.2664 18.6719 32.1136C18.6719 33.6266 20.7363 41.1308 28.2843 51.0557C33.3163 57.8336 40.406 61.5077 46.8574 61.5077C50.7281 61.5077 51.207 60.6917 51.207 59.286V54.1633C51.207 52.5312 51.5737 52.2055 52.7994 52.2055C53.7026 52.2055 55.2509 52.6291 58.8637 55.8971C62.9925 59.7702 63.6732 61.5077 65.9956 61.5077H72.0851C73.8249 61.5077 74.6949 60.6917 74.193 59.0813C73.6439 57.4762 71.6726 55.1475 69.0568 52.387C67.6375 50.8136 65.5086 49.1192 64.8634 48.2718C63.9602 47.1826 64.2183 46.6983 64.8634 45.7301C64.8634 45.7301 72.2825 35.9262 73.0567 32.5978Z" fill="white"/>
</svg>
