<svg width="115" height="76" viewBox="0 0 115 76" fill="none" xmlns="http://www.w3.org/2000/svg">
<rect x="0.5" y="1" width="114" height="74" rx="7.5" fill="white"/>
<rect x="0.5" y="1" width="114" height="74" rx="7.5" stroke="#434343"/>
<line x1="6" y1="56.5" x2="110" y2="56.5" stroke="#434343" stroke-width="4"/>
<line x1="6" y1="61.5" x2="110" y2="61.5" stroke="#434343" stroke-width="4"/>
<line x1="6" y1="66.5" x2="110" y2="66.5" stroke="#434343" stroke-width="4"/>
<line x1="36" y1="43.5" x2="56" y2="43.5" stroke="#434343" stroke-width="2"/>
<line x1="36" y1="33" x2="58" y2="33" stroke="#434343"/>
<line x1="36" y1="29" x2="56" y2="29" stroke="#434343" stroke-width="3"/>
<line x1="36" y1="16" x2="60" y2="16" stroke="#434343" stroke-width="3"/>
<line x1="81" y1="15.5" x2="110" y2="15.5" stroke="#434343" stroke-width="4"/>
<line x1="81" y1="28.5" x2="110" y2="28.5" stroke="#434343" stroke-width="4"/>
<line x1="36" y1="11.5" x2="73" y2="11.5" stroke="#434343" stroke-width="2"/>
<line x1="36" y1="25.5" x2="62" y2="25.5" stroke="#434343" stroke-width="2"/>
<line x1="36" y1="24" x2="56" y2="24" stroke="#434343"/>
<line x1="81" y1="19.5" x2="101" y2="19.5" stroke="#434343" stroke-width="2"/>
<line x1="81" y1="23" x2="106" y2="23" stroke="#434343" stroke-width="3"/>
<line x1="85" y1="34" x2="106" y2="34" stroke="#434343" stroke-width="3"/>
<line x1="36" y1="36" x2="56" y2="36" stroke="#434343" stroke-width="3"/>
<line x1="19.5" y1="20.5" x2="19.5" y2="34.5" stroke="#434343" stroke-width="7"/>
<line x1="13" y1="21" x2="16" y2="21" stroke="#434343"/>
<line x1="12" y1="22" x2="16" y2="22" stroke="#434343"/>
<line x1="12" y1="24" x2="16" y2="24" stroke="#434343"/>
<line x1="12" y1="25" x2="16" y2="25" stroke="#434343"/>
<line x1="23" y1="21.5" x2="27" y2="21.5" stroke="#434343" stroke-width="2"/>
<line x1="23" y1="24.5" x2="27" y2="24.5" stroke="#434343" stroke-width="2"/>
<line x1="23" y1="27.5" x2="27" y2="27.5" stroke="#434343" stroke-width="2"/>
<line x1="23" y1="30.5" x2="27" y2="30.5" stroke="#434343" stroke-width="2"/>
<line x1="23" y1="33.5" x2="27" y2="33.5" stroke="#434343" stroke-width="2"/>
<line x1="12" y1="27.5" x2="16" y2="27.5" stroke="#434343" stroke-width="2"/>
<line x1="12" y1="30.5" x2="16" y2="30.5" stroke="#434343" stroke-width="2"/>
<line x1="12" y1="33.5" x2="16" y2="33.5" stroke="#434343" stroke-width="2"/>
</svg>
