<svg width="111" height="110" viewBox="0 0 111 110" fill="none" xmlns="http://www.w3.org/2000/svg">
<path d="M16.65 109.408L16.65 97.3078L94.35 97.3078L94.35 109.408L16.65 109.408ZM16.65 88.2328L9.57375 39.6816C9.38875 39.6816 9.18063 39.7068 8.94938 39.7572C8.71813 39.8076 8.51 39.8328 8.325 39.8328C6.0125 39.8328 4.04688 38.9505 2.42813 37.1859C0.809375 35.4214 -2.31622e-08 33.2786 -2.13805e-08 30.7578C-1.95988e-08 28.237 0.809375 26.0943 2.42813 24.3297C4.04688 22.5651 6.0125 21.6828 8.325 21.6828C10.6375 21.6828 12.6031 22.5651 14.2219 24.3297C15.8406 26.0943 16.65 28.237 16.65 30.7578C16.65 31.4636 16.5806 32.1191 16.4419 32.7241C16.3031 33.3291 16.1413 33.8836 15.9563 34.3878L33.3 42.8578L50.6438 16.9941C49.6263 16.1874 48.7938 15.1286 48.1463 13.8178C47.4988 12.507 47.175 11.0953 47.175 9.58281C47.175 7.06198 47.9844 4.91927 49.6031 3.15469C51.2219 1.3901 53.1875 0.507813 55.5 0.507813C57.8125 0.507813 59.7781 1.3901 61.3969 3.15469C63.0156 4.91927 63.825 7.06198 63.825 9.58281C63.825 11.0953 63.5013 12.507 62.8538 13.8178C62.2062 15.1286 61.3738 16.1874 60.3563 16.9941L77.7 42.8578L95.0438 34.3878C94.8588 33.8836 94.6969 33.3291 94.5581 32.7241C94.4194 32.1191 94.35 31.4636 94.35 30.7578C94.35 28.237 95.1594 26.0943 96.7781 24.3297C98.3969 22.5651 100.363 21.6828 102.675 21.6828C104.988 21.6828 106.953 22.5651 108.572 24.3297C110.191 26.0943 111 28.237 111 30.7578C111 33.2786 110.191 35.4214 108.572 37.1859C106.953 38.9505 104.988 39.8328 102.675 39.8328C102.49 39.8328 102.282 39.8076 102.051 39.7572C101.819 39.7068 101.611 39.6816 101.426 39.6816L94.35 88.2328L16.65 88.2328ZM26.085 76.1328L84.915 76.1328L88.5225 50.8741L73.9538 57.8316L55.5 30.1528L37.0463 57.8316L22.4775 50.8741L26.085 76.1328Z" fill="#D9D9D9"/>
</svg>
