<svg width="115" height="76" viewBox="0 0 115 76" fill="none" xmlns="http://www.w3.org/2000/svg">
<rect x="0.5" y="1" width="114" height="74" rx="7.5" fill="white"/>
<rect x="0.5" y="1" width="114" height="74" rx="7.5" stroke="#434343"/>
<path d="M22.5 33.5C26.0899 33.5 29 30.5899 29 27C29 23.4101 26.0899 20.5 22.5 20.5C18.9101 20.5 16 23.4101 16 27C16 30.5899 18.9101 33.5 22.5 33.5Z" stroke="#434343" stroke-width="3.66667" stroke-linecap="round" stroke-linejoin="round"/>
<path d="M13 48.5V45.5C13 43.9087 13.6673 42.3826 14.855 41.2574C16.0427 40.1321 17.6536 39.5 19.3333 39.5H25.6667C27.3464 39.5 28.9573 40.1321 30.145 41.2574C31.3327 42.3826 32 43.9087 32 45.5V48.5" stroke="#434343" stroke-width="3.66667" stroke-linecap="round" stroke-linejoin="round"/>
<circle cx="8.5" cy="9" r="4.5" fill="#434343"/>
<line x1="18" y1="10.5" x2="47" y2="10.5" stroke="#434343" stroke-width="2"/>
<line x1="21" y1="7.5" x2="45" y2="7.5" stroke="#434343" stroke-width="2"/>
<line x1="50" y1="10.5" x2="79" y2="10.5" stroke="#434343" stroke-width="2"/>
<line x1="53" y1="7.5" x2="77" y2="7.5" stroke="#434343" stroke-width="2"/>
<line x1="80" y1="7.5" x2="103" y2="7.5" stroke="#434343" stroke-width="2"/>
<line x1="82" y1="10.5" x2="101.034" y2="10.5" stroke="#434343" stroke-width="2"/>
<line x1="41" y1="21" x2="65" y2="21" stroke="#434343" stroke-width="3"/>
<line x1="41" y1="30" x2="65" y2="30" stroke="#434343" stroke-width="3"/>
<line x1="41" y1="50" x2="86" y2="50" stroke="#434343" stroke-width="3"/>
<line x1="41" y1="41" x2="59" y2="41" stroke="#434343" stroke-width="3"/>
<line x1="41" y1="17.5" x2="61" y2="17.5" stroke="#434343" stroke-width="2"/>
<line x1="41" y1="26.5" x2="61" y2="26.5" stroke="#434343" stroke-width="2"/>
<line x1="41" y1="37.5" x2="69" y2="37.5" stroke="#434343" stroke-width="2"/>
<line x1="41" y1="54.5" x2="69" y2="54.5" stroke="#434343" stroke-width="2"/>
<line x1="41" y1="44" x2="55" y2="44" stroke="#434343"/>
<line x1="41" y1="59" x2="61" y2="59" stroke="#434343" stroke-width="3"/>
<line x1="87" y1="54.5" x2="101" y2="54.5" stroke="#434343" stroke-width="2"/>
<line x1="87" y1="65.5" x2="101" y2="65.5" stroke="#434343" stroke-width="2"/>
<line x1="87" y1="59" x2="103" y2="59" stroke="#434343" stroke-width="3"/>
<line x1="87" y1="70" x2="103" y2="70" stroke="#434343" stroke-width="3"/>
</svg>
