<svg width="123" height="51" viewBox="0 0 123 51" fill="none" xmlns="http://www.w3.org/2000/svg">
<path d="M15 0.392578H123V42.5155C123 46.9337 119.418 50.5155 115 50.5155H23C18.5817 50.5155 15 46.9337 15 42.5155V0.392578Z" fill="#FFA455"/>
<path d="M7.10526 9.11985L15 0.392578V16.3926H0L7.10526 9.11985Z" fill="#F06209"/>
<mask id="mask0_1518_18436" style="mask-type:alpha" maskUnits="userSpaceOnUse" x="49" y="4" width="41" height="41">
<rect x="49" y="4.39258" width="41" height="40.3627" fill="#D9D9D9"/>
</mask>
<g mask="url(#mask0_1518_18436)">
<path d="M59.25 27.9371C59.25 29.3946 59.549 30.7751 60.1469 32.0784C60.7448 33.3818 61.599 34.524 62.7094 35.5051C62.6809 35.3649 62.6667 35.2388 62.6667 35.1267V34.7483C62.6667 33.8513 62.8375 33.0104 63.1792 32.2256C63.5209 31.4408 64.0191 30.726 64.674 30.0813L69.5 25.4144L74.3261 30.0813C74.9809 30.726 75.4792 31.4408 75.8209 32.2256C76.1625 33.0104 76.3334 33.8513 76.3334 34.7483V35.1267C76.3334 35.2388 76.3191 35.3649 76.2906 35.5051C77.4011 34.524 78.2552 33.3818 78.8531 32.0784C79.4511 30.7751 79.75 29.3946 79.75 27.9371C79.75 26.5356 79.4867 25.2112 78.9599 23.9639C78.4332 22.7165 77.6715 21.6024 76.675 20.6213C76.1056 20.9857 75.5077 21.259 74.8813 21.4412C74.2549 21.6234 73.6143 21.7145 72.9594 21.7145C71.1941 21.7145 69.6637 21.1399 68.3683 19.9907C67.0728 18.8414 66.3254 17.4259 66.1261 15.7442C65.0157 16.6691 64.0334 17.6292 63.1792 18.6242C62.325 19.6193 61.6061 20.6283 61.0224 21.6514C60.4388 22.6745 59.9974 23.7186 59.6985 24.7837C59.3995 25.8489 59.25 26.9 59.25 27.9371ZM69.5 30.1234L67.0657 32.4779C66.7525 32.7862 66.5104 33.1366 66.3396 33.529C66.1688 33.9214 66.0834 34.3278 66.0834 34.7483C66.0834 35.6452 66.4179 36.416 67.087 37.0607C67.7561 37.7054 68.5604 38.0277 69.5 38.0277C70.4396 38.0277 71.244 37.7054 71.913 37.0607C72.5821 36.416 72.9167 35.6452 72.9167 34.7483C72.9167 34.2998 72.8313 33.8864 72.6604 33.508C72.4896 33.1296 72.2476 32.7862 71.9344 32.4779L69.5 30.1234ZM69.5 9.4375V14.9874C69.5 15.9404 69.8346 16.7392 70.5037 17.3839C71.1728 18.0286 71.9913 18.3509 72.9594 18.3509C73.4719 18.3509 73.9488 18.2458 74.3901 18.0356C74.8314 17.8254 75.2229 17.51 75.5646 17.0896L76.3334 16.1646C78.4403 17.3419 80.1059 18.9816 81.3302 21.0838C82.5545 23.186 83.1667 25.4705 83.1667 27.9371C83.1667 31.693 81.8427 34.8744 79.1948 37.4812C76.5469 40.0879 73.3153 41.3913 69.5 41.3913C65.6848 41.3913 62.4532 40.0879 59.8052 37.4812C57.1573 34.8744 55.8334 31.693 55.8334 27.9371C55.8334 24.3212 57.0648 20.8876 59.5276 17.6362C61.9905 14.3847 65.3146 11.6518 69.5 9.4375Z" fill="white"/>
</g>
</svg>
