<svg width="301" height="300" viewBox="0 0 301 300" fill="none" xmlns="http://www.w3.org/2000/svg">
<path d="M204.574 45.7353C204.566 45.7159 204.552 45.6991 204.535 45.6874C204.518 45.6756 204.497 45.6693 204.476 45.6693C204.455 45.6693 204.435 45.6756 204.417 45.6874C204.4 45.6991 204.387 45.7159 204.379 45.7353C204.379 46.6653 203.029 47.2353 203.404 48.2853C203.569 48.7353 204.184 49.0503 204.529 48.6003C204.541 48.5782 204.548 48.5535 204.549 48.5282C204.55 48.5029 204.546 48.4776 204.535 48.4544C204.525 48.4312 204.51 48.4107 204.491 48.3943C204.471 48.378 204.448 48.3664 204.424 48.3603H204.259C203.539 48.3603 203.539 47.8503 204.349 46.8603C204.472 46.7034 204.556 46.5199 204.595 46.3246C204.634 46.1292 204.627 45.9274 204.574 45.7353ZM207.754 44.2203C207.844 44.4603 208.234 44.3853 208.279 44.1453C208.278 43.6391 208.213 43.1349 208.084 42.6453C208.084 42.5896 208.062 42.5362 208.022 42.4968C207.983 42.4575 207.929 42.4353 207.874 42.4353C207.818 42.4353 207.765 42.4575 207.725 42.4968C207.686 42.5362 207.664 42.5896 207.664 42.6453C207.565 43.1699 207.596 43.7104 207.754 44.2203ZM200.914 43.0653C200.914 43.5303 200.914 44.4453 201.379 44.7303C201.401 44.7426 201.426 44.7496 201.451 44.7507C201.476 44.7519 201.501 44.7472 201.525 44.7371C201.548 44.7269 201.568 44.7116 201.585 44.6922C201.601 44.6728 201.613 44.6499 201.619 44.6253C201.545 44.1181 201.434 43.6169 201.289 43.1253C201.259 42.8403 200.914 42.8253 200.914 43.0653ZM199.474 41.2503C199.446 41.2961 199.437 41.351 199.45 41.4031C199.463 41.4551 199.496 41.5 199.541 41.5278C199.587 41.5557 199.642 41.5642 199.694 41.5516C199.746 41.5389 199.791 41.5061 199.819 41.4603C200.044 41.1603 201.319 40.2753 201.469 39.9603C201.488 39.9367 201.501 39.908 201.505 39.8776C201.509 39.8472 201.505 39.8162 201.492 39.7882C201.48 39.7601 201.46 39.7361 201.434 39.7188C201.409 39.7015 201.379 39.6917 201.349 39.6903C200.524 39.6753 199.804 40.6053 199.474 41.2503ZM207.904 39.2853C208.654 39.3753 209.044 39.9753 209.404 40.5453C209.429 40.5889 209.468 40.6229 209.514 40.6418C209.561 40.6607 209.612 40.6635 209.661 40.6497C209.709 40.6359 209.751 40.6063 209.781 40.5656C209.81 40.525 209.826 40.4756 209.824 40.4253C209.824 39.4503 208.759 38.8503 207.874 38.8353C207.604 38.8203 207.619 39.2553 207.904 39.2853ZM222.904 90.0003C226.129 89.8053 229.294 88.8903 232.519 88.6053C232.774 88.6053 232.774 88.1703 232.519 88.2003C229.264 88.4876 226.041 89.0649 222.889 89.9253L222.904 90.0003ZM207.379 90.6453C207.619 90.6453 207.514 90.2403 207.274 90.2703C203.929 90.7953 200.569 91.3953 197.239 92.0253C197.149 92.0253 197.239 92.1903 197.239 92.1903C200.644 91.7253 204.034 91.2303 207.379 90.6453ZM157.909 176.145L133.999 159.495L129.469 167.04L161.314 188.1L187.984 138.735L180.304 135.135L157.909 176.145Z" fill="#007CFF"/>
<path d="M198.397 117.121C197.992 116.101 197.797 116.236 196.717 116.011C194.932 115.621 193.132 115.276 191.332 114.916C185.752 113.791 180.277 111.916 174.832 110.416C169.327 108.939 163.945 107.033 158.737 104.716C157.237 104.056 155.857 103.411 154.477 102.631C153.652 102.151 151.942 100.651 151.027 100.711C150.502 100.711 150.757 100.711 150.157 101.221C149.032 102.271 147.937 103.306 146.752 104.221C142.117 107.832 137.185 111.043 132.007 113.821C124.046 118.647 115.756 122.908 107.197 126.571C107.138 126.587 107.085 126.622 107.047 126.671C107.009 126.719 106.988 126.779 106.987 126.841C106.219 135.747 107.052 144.718 109.447 153.331C111.683 162.015 114.372 170.577 117.502 178.981C123.082 194.236 131.407 208.411 143.722 219.076C156.577 230.221 167.722 232.171 167.827 232.066C172.337 228.633 176.47 224.731 180.157 220.426C188.701 210.895 195.359 199.829 199.777 187.816C202.471 180.332 204.161 172.524 204.802 164.596C205.642 154.096 204.142 143.731 202.327 133.336C201.602 127.806 200.284 122.369 198.397 117.121ZM202.357 177.121C200.326 187 196.476 196.415 191.002 204.886C177.217 225.196 167.782 231.481 167.632 231.586C153.703 226.865 141.543 218.012 132.772 206.206C128.63 200.758 125.07 194.891 122.152 188.701C118.937 181.481 116.176 174.066 113.887 166.501C111.397 159.28 109.466 151.878 108.112 144.361C107.455 140.365 107.149 136.32 107.197 132.271C107.197 131.311 107.377 127.141 107.362 127.156C107.512 126.901 118.537 122.191 123.187 119.551C129.502 115.891 136.042 112.501 142.102 108.361C144.756 106.606 147.265 104.639 149.602 102.481C150.442 101.701 150.772 101.296 151.912 101.761C152.707 102.076 157.417 104.761 159.067 105.436C165.694 108.23 172.524 110.516 179.497 112.276C183.142 113.311 186.787 114.496 190.492 115.276C192.839 115.642 195.163 116.143 197.452 116.776C198.307 117.316 200.017 124.141 200.452 125.941C201.262 129.661 201.862 133.441 202.507 137.161C204.772 150.541 205.387 163.786 202.357 177.151V177.121ZM98.9772 55.4108C98.9547 55.4357 98.9396 55.4665 98.9337 55.4997C98.9278 55.5328 98.9313 55.5669 98.9438 55.5981C98.9563 55.6294 98.9773 55.6565 99.0044 55.6764C99.0315 55.6963 99.0637 55.7082 99.0972 55.7108C99.3716 55.6763 99.6267 55.5514 99.8223 55.3558C100.018 55.1603 100.143 54.9052 100.177 54.6308C100.177 54.3758 99.2622 53.2508 99.1122 52.7408C99.103 52.7143 99.0858 52.6913 99.063 52.6751C99.0401 52.6589 99.0128 52.6501 98.9847 52.6501C98.9567 52.6501 98.9294 52.6589 98.9065 52.6751C98.8837 52.6913 98.8664 52.7143 98.8572 52.7408C98.7222 53.1758 99.7422 54.4058 99.6822 54.7358C99.6222 55.0658 99.2022 55.1858 98.9772 55.4108ZM101.737 50.5508C101.595 51.0373 101.534 51.5442 101.557 52.0508C101.557 52.4858 102.232 52.4858 102.247 52.0508C102.315 51.5448 102.259 51.0299 102.082 50.5508C102.066 50.5194 102.041 50.4931 102.01 50.4747C101.98 50.4564 101.945 50.4467 101.91 50.4467C101.874 50.4467 101.839 50.4564 101.809 50.4747C101.779 50.4931 101.754 50.5194 101.737 50.5508ZM95.6322 50.5058C95.493 50.9961 95.493 51.5155 95.6322 52.0058C95.6322 52.3208 96.2322 52.2758 96.2022 52.0058C96.1722 51.7358 96.0972 51.0758 96.0372 50.6108C96.0512 50.5571 96.0432 50.5 96.015 50.4522C95.9869 50.4044 95.9409 50.3697 95.8872 50.3558C95.8335 50.3418 95.7765 50.3498 95.7287 50.3779C95.6808 50.4061 95.6461 50.452 95.6322 50.5058ZM94.3572 50.0858C94.5972 49.7708 95.8572 48.7808 96.0372 48.4958C96.0679 48.4661 96.088 48.4272 96.0944 48.385C96.1008 48.3428 96.0932 48.2997 96.0728 48.2623C96.0524 48.2248 96.0202 48.1951 95.9813 48.1777C95.9424 48.1602 95.8988 48.156 95.8572 48.1658C95.0571 48.4601 94.3873 49.0288 93.9672 49.7708C93.8022 50.0108 94.1772 50.2958 94.3572 50.0858ZM101.437 48.3458C101.982 48.6201 102.487 48.9684 102.937 49.3808C102.967 49.4107 103.004 49.4312 103.045 49.4396C103.087 49.448 103.129 49.4438 103.168 49.4277C103.207 49.4115 103.24 49.3841 103.263 49.349C103.286 49.3139 103.298 49.2727 103.297 49.2308C103.297 48.8408 101.797 47.9708 101.392 48.0008C101.356 48.0158 101.325 48.0426 101.305 48.0769C101.285 48.1113 101.277 48.1512 101.282 48.1906C101.287 48.2299 101.305 48.2665 101.333 48.2945C101.361 48.3226 101.398 48.3406 101.437 48.3458ZM94.4472 57.7958H94.3122C94.3122 58.7558 96.4422 60.7058 99.2772 59.4908C99.4122 59.4908 99.2772 59.2058 99.1722 59.2508C98.3386 59.5975 97.41 59.6418 96.5471 59.3761C95.6842 59.1104 94.9414 58.5514 94.4472 57.7958ZM36.9822 184.501C32.0172 184.996 26.9322 184.216 21.9822 184.831C21.9822 184.831 21.8772 184.921 21.8772 184.966C21.4847 189.056 21.5652 193.179 22.1172 197.251C22.1203 197.288 22.1326 197.324 22.1529 197.355C22.1732 197.386 22.201 197.412 22.2337 197.43C22.2664 197.448 22.3031 197.457 22.3403 197.457C22.3776 197.457 22.4143 197.448 22.4472 197.431C27.2772 197.686 32.3322 197.521 37.1772 197.296C37.3122 197.296 37.3722 196.996 37.3722 196.966C37.5175 192.869 37.4374 188.768 37.1322 184.681C37.1343 184.659 37.132 184.637 37.1256 184.616C37.1192 184.596 37.1087 184.576 37.0947 184.559C37.0808 184.543 37.0637 184.529 37.0444 184.519C37.025 184.509 37.0039 184.503 36.9822 184.501ZM22.4322 188.836C22.4322 187.576 22.4322 186.316 22.3422 185.041C27.0902 185.284 31.8484 185.249 36.5922 184.936C36.4746 186.398 36.4396 187.865 36.4872 189.331C31.8138 188.927 27.1219 188.776 22.4322 188.881V188.836ZM22.7472 196.921C22.5222 194.416 22.4922 191.926 22.4622 189.421C24.6822 189.421 26.9622 189.511 29.1222 189.571C28.9418 191.928 29.078 194.299 29.5272 196.621C27.2614 196.524 24.9916 196.64 22.7472 196.966V196.921ZM30.2472 196.666C30.2472 195.331 29.9022 190.561 29.7072 189.526C31.9422 189.526 36.4722 189.901 36.4872 189.901C36.4872 192.181 36.7122 194.476 36.7572 196.726C34.6722 196.876 32.4672 196.771 30.2922 196.711L30.2472 196.666Z" fill="#919191"/>
<path d="M291.98 194.55C291.671 192.485 290.652 190.592 289.1 189.195C287.225 187.77 284.735 188.01 282.53 188.085C279.23 188.19 272.435 188.835 272.435 188.82C271.295 185.625 270.29 182.355 268.97 179.25C268.063 176.607 266.172 174.415 263.69 173.13C261.26 172.08 249.86 172.89 244.58 173.37C248.555 160.23 248.765 142.065 248.765 138.555C249.316 138.185 249.79 137.711 250.16 137.16C251.345 135.195 250.52 132.165 250.34 130.05C249.83 124.305 249.515 118.47 248.705 112.755C250.238 111.196 251.577 109.459 252.695 107.58C256.325 101.475 256.34 94.6804 254.66 87.9154C252.98 81.1504 248.24 75.9154 242.915 71.3254C237.626 66.5216 231.054 63.3584 224 62.2204C223.275 60.9524 222.436 59.7526 221.495 58.6354L220.175 59.4004C220.175 57.3754 219.335 48.7054 219.335 48.7054C220.565 48.3754 222.995 44.8204 223.37 42.2104C223.55 39.6674 223.105 37.1191 222.075 34.7871C221.045 32.4552 219.461 30.4103 217.46 28.8304C211.91 24.3304 200.96 26.4454 198.545 28.2754C197.882 28.799 197.116 29.1765 196.296 29.3833C195.477 29.5901 194.623 29.6215 193.79 29.4754C193.79 29.4754 195.8 31.4854 194.57 31.8604C193.34 32.2354 192.5 30.1954 192.5 30.1954C192.215 34.2754 193.85 35.2954 193.85 35.2954C199.235 41.0854 203.3 36.4504 203.3 36.4504C203.3 36.4504 203.855 34.6504 209.645 35.9554C210.391 36.0617 211.106 36.3247 211.743 36.7269C212.379 37.1291 212.924 37.6614 213.34 38.289C213.757 38.9166 214.036 39.6251 214.159 40.3682C214.282 41.1112 214.247 41.8719 214.055 42.6004L214.79 42.9004C215.067 42.4987 215.378 42.1222 215.72 41.7754C218.99 39.5104 219.83 42.9454 219.83 42.9454C220.49 45.7354 217.055 46.5454 217.055 46.5454C217.145 50.4154 216.44 51.0454 216.44 51.0454C213.65 54.3904 210.815 50.7604 210.815 50.7604C210.189 50.0388 209.4 49.4773 208.513 49.1225C207.625 48.7676 206.666 48.6298 205.715 48.7204C202.175 48.8704 202.715 49.9954 201.215 51.0904C200.27 51.7804 199.31 51.0004 198.725 50.3554C198.725 49.0804 198.215 44.0854 197.93 42.8554V38.4904C196.88 38.1834 195.922 37.6218 195.14 36.8554C193.64 41.3554 196.835 42.7354 197.72 43.0504C197.825 44.4154 197.33 54.8104 199.22 58.7104C199.726 59.7948 200.492 60.7374 201.449 61.4545C202.407 62.1715 203.527 62.6407 204.71 62.8204C204.545 63.7054 204.38 65.1754 204.35 65.5804C200.66 66.1204 197.675 68.4904 194.81 70.7254C191.373 73.3519 188.184 76.2893 185.285 79.5004C180.062 85.1683 176.665 92.2762 175.535 99.9004L170.39 98.4004C170.465 98.0706 170.5 97.7333 170.495 97.3954C170.491 96.7918 170.304 96.2036 169.96 95.7077C169.616 95.2118 169.13 94.8313 168.566 94.6158C168.003 94.4003 167.387 94.3599 166.8 94.4999C166.213 94.6398 165.681 94.9537 165.275 95.4004C164.979 95.8106 164.766 96.2741 164.645 96.7654C164.645 96.7654 156.035 92.9554 151.73 91.1104C150.817 90.5186 149.705 90.3136 148.64 90.5404C146.993 91.4221 145.531 92.614 144.335 94.0504V93.9604C142.835 92.1154 139.535 92.2654 139.055 94.9504C138.962 95.7339 139.087 96.528 139.415 97.2454C138.665 97.8004 137.915 98.3854 137.045 98.9554C134.945 93.7654 132.95 88.3504 129.545 83.9554C126.716 80.1923 123.303 76.9058 119.435 74.2204C114.13 70.4408 107.736 68.4973 101.225 68.6854L100.835 67.7404C100.835 67.1254 100.715 66.5104 100.64 65.9104C105.515 66.3154 108.05 58.9804 108.05 58.9804C108.222 60.2474 108.094 61.5371 107.675 62.7454C107.675 62.7454 112.625 55.6354 109.7 43.8304C106.775 32.0254 96.2004 34.5004 96.2004 34.5004C83.6454 27.2254 77.1204 40.2604 77.1204 40.2604C69.4704 58.7704 83.1204 66.5104 83.1204 66.5104C81.8004 65.5204 82.2204 63.3004 82.2204 63.3004C82.9052 64.2678 83.8014 65.0665 84.8411 65.6357C85.8807 66.2049 87.0364 66.5297 88.2204 66.5854C88.2204 67.0504 88.0554 67.5604 88.0104 68.0854L87.6954 69.1954C74.6304 73.8004 63.1254 82.2754 58.6404 95.8654C56.5104 102.3 56.3754 108.99 59.6154 115.095C62.3375 120.05 66.825 123.799 72.1854 125.595C72.1205 126.474 72.2586 127.356 72.5889 128.172C72.9192 128.989 73.433 129.719 74.0904 130.305C73.0704 130.77 70.4454 132.66 68.9454 140.16C68.3304 143.25 67.1904 148.65 65.9454 154.515C59.3904 149.385 49.7604 141.555 49.6104 141.675C35.5404 153 8.07538 176.88 8.07538 176.91C8.04548 176.935 8.02353 176.968 8.01231 177.005C8.00109 177.042 8.00111 177.081 8.01235 177.118C8.0236 177.155 8.04558 177.188 8.0755 177.212C8.10541 177.237 8.14191 177.252 8.18038 177.255C10.4454 177.45 12.6804 177.585 15.0054 177.66C15.0054 191.595 16.1754 219.66 16.2354 219.66H11.0004C10.8955 222.014 10.9858 224.372 11.2704 226.71C21.6204 226.71 60.6054 226.44 74.4804 226.17C74.9304 232.785 75.4854 240.735 75.4854 240.735C74.5704 241.095 70.6404 243.435 69.4104 243.975C67.7604 244.695 66.4104 245.58 66.6204 247.575C66.6905 247.654 66.7777 247.716 66.8754 247.755C72.2818 248.161 77.7168 247.95 83.0754 247.125C83.1941 247.087 83.2952 247.007 83.3604 246.9C83.7879 245.385 83.7879 243.781 83.3604 242.265L90.0654 214.365C91.0554 210.42 94.7004 194.685 95.6004 190.8C99.3801 190.777 103.156 190.547 106.91 190.11C108.41 194.7 112.61 212.25 114.29 216C115.97 219.75 116.15 221.295 116.18 221.31C120.455 222.51 123.995 224.025 129.125 219.81C129.171 219.765 129.233 219.739 129.298 219.739C129.363 219.739 129.425 219.765 129.47 219.81C129.516 219.856 129.542 219.918 129.542 219.983C129.542 220.048 129.516 220.11 129.47 220.155C126.38 223.47 119.855 223.905 116.135 221.415L122.66 240.6C122.251 242.519 122.251 244.502 122.66 246.42C122.66 246.54 132.47 246.42 137.285 246.285C137.435 246.285 137.555 245.985 137.555 245.955C137.599 245.21 137.418 244.468 137.035 243.826C136.653 243.184 136.087 242.672 135.41 242.355C134.54 241.86 130.625 239.985 129.575 239.46V217.2C131.448 219.666 133.509 221.983 135.74 224.13C140.87 228.79 146.39 233 152.24 236.715C157.49 240.24 163.025 243.735 169.13 245.55C169.25 245.55 185.27 235.26 193.775 222.585V228.36C194.452 229.058 195.292 229.573 196.22 229.86C196.341 231.105 196.531 232.342 196.79 233.565C194.6 235.065 191.225 237.345 190.655 240.075C190.584 240.326 190.566 240.589 190.602 240.847C190.638 241.106 190.728 241.354 190.865 241.575C190.085 245.31 198.5 244.575 200.3 244.335C202.64 244.02 210.8 243.555 209.42 239.37C209.42 239.37 209.855 234.12 208.385 233.205C208.52 231.994 208.52 230.772 208.385 229.56C210.485 229.11 211.955 228.66 211.955 228.66L213.815 182.16C217.28 200.01 231.38 230.04 231.38 230.04C232.463 230.198 233.556 230.278 234.65 230.28C235.074 231.317 235.576 232.319 236.15 233.28C234.995 234.375 229.085 240.015 232.265 241.95C232.955 245.64 238.76 243.585 240.905 242.67C242.255 242.1 250.445 238.17 247.85 236.025C247.85 236.025 245.915 231.36 245.255 231.105C245.126 229.878 244.855 228.67 244.445 227.505C245.22 227.02 245.939 226.451 246.59 225.81C246.59 225.81 245.09 217.155 243.59 208.455C251.451 208.682 259.317 208.215 267.095 207.06C267.2 207.06 267.275 206.91 267.29 206.805C267.29 204.795 267.425 202.665 268.985 201.195C270.382 200.058 272.052 199.308 273.83 199.02C278.57 198 280.61 201.18 281.81 205.185C281.81 205.29 289.235 204.84 292.835 204.975C293.03 204.975 293.105 204.555 293.105 204.51C293.084 201.16 292.707 197.821 291.98 194.55ZM204.5 35.5354C202.49 36.6904 199.925 34.9654 199.31 33.0004C199.31 32.8954 199.43 32.8204 199.49 32.9254C199.97 33.7954 201.89 36.0154 204.38 35.1004C204.5 35.0254 204.665 35.4304 204.5 35.5354ZM240.305 69.8854C245.555 73.8754 251.075 78.9754 253.355 85.3054C255.635 91.6354 256.265 99.5104 253.13 105.765C250.097 111.419 245.306 115.932 239.48 118.62C232.811 121.688 225.551 123.255 218.21 123.21C218.172 123.195 218.129 123.195 218.09 123.21C216.688 120.364 215.042 117.643 213.17 115.08C221.588 109.707 230.285 104.785 239.225 100.335C239.261 100.314 239.288 100.283 239.304 100.245C239.32 100.207 239.324 100.165 239.315 100.125C238.4 97.0379 237.792 93.8675 237.5 90.6604C237.5 90.5254 237.275 90.5104 237.275 90.6604C237.345 93.2243 237.687 95.7736 238.295 98.2654C238.595 99.5554 239.315 99.7654 238.205 100.41C236.045 101.535 221.96 109.02 217.205 111.93C216.995 109.38 216.29 97.5304 216.32 97.5004C218.375 94.0654 226.16 79.9054 228.32 76.5004C228.337 76.4836 228.35 76.4638 228.36 76.4419C228.369 76.42 228.373 76.3965 228.373 76.3729C228.373 76.3492 228.369 76.3257 228.36 76.3038C228.35 76.2819 228.337 76.2621 228.32 76.2454C227.411 74.7634 226.317 73.4025 225.065 72.1954C226.737 70.8931 228.548 69.7812 230.465 68.8804C230.63 68.8804 230.825 68.7454 230.705 68.5654C229.478 66.5904 228.039 64.7546 226.415 63.0904C231.453 64.3683 236.168 66.6826 240.26 69.8854H240.305ZM209.705 121.995C206.87 124.53 206.705 123.075 206.63 122.61C207.682 122.051 208.656 121.355 209.525 120.54C209.525 120.54 209.435 120.3 209.36 120.36C208.745 120.78 205.31 123.675 205.31 121.95C206.427 120.565 207.718 119.33 209.15 118.275C208.94 117.87 208.19 118.275 207.995 115.77C208.94 116.486 210.095 116.871 211.28 116.865C211.991 116.902 212.697 116.724 213.305 116.355C213.852 117.495 214.474 118.597 215.165 119.655C214.221 120.564 213.219 121.41 212.165 122.19C211.22 122.85 209.165 124.485 207.965 123.69C208.657 123.234 209.319 122.733 209.945 122.19C209.975 122.1 209.75 121.92 209.66 121.995H209.705ZM226.025 63.0004C226.58 63.9154 229.595 67.6354 230.36 68.6854C228.286 69.3591 226.425 70.5641 224.96 72.1804L228.11 76.3054C224.12 83.1604 219.425 89.8054 216.305 97.1703C217.397 85.6078 219.771 74.2027 223.385 63.1654L223.925 62.5954L226.025 63.0004ZM221.42 58.9804C222.035 60.1504 222.92 61.1404 223.565 62.3404C221.555 64.4404 219.335 66.2704 217.22 68.3404C216.427 66.5176 215.42 64.7956 214.22 63.2104C216.778 62.0999 219.195 60.6901 221.42 59.0104V58.9804ZM213.05 62.3254C217.775 61.2904 218.96 55.2604 219.26 51.5704C219.26 52.3204 219.56 57.5704 219.785 59.4604C219.777 59.4949 219.777 59.5308 219.785 59.5654L213.95 63.0004C213.304 64.1851 212.753 65.4189 212.3 66.6904C211.795 65.3537 211.193 64.0553 210.5 62.8054C211.355 62.7004 212.18 62.5504 213.05 62.3554V62.3254ZM212.105 67.3654C212.099 67.3969 212.1 67.4292 212.106 67.4606C212.113 67.492 212.126 67.5218 212.144 67.5482C212.162 67.5747 212.185 67.5973 212.212 67.6149C212.239 67.6324 212.269 67.6444 212.3 67.6504C212.332 67.6563 212.364 67.6559 212.396 67.6493C212.427 67.6427 212.457 67.63 212.483 67.6119C212.51 67.5938 212.532 67.5706 212.55 67.5438C212.567 67.5169 212.579 67.4869 212.585 67.4554C213.035 66.0904 213.695 64.7704 214.085 63.4054C214.919 65.2359 215.923 66.9837 217.085 68.6254C219.157 67.1361 221.108 65.486 222.92 63.6904C217.985 74.5954 216.125 90.1954 215.84 95.3254C214.64 90.8254 209.285 72.4954 207.305 68.0404C207.809 68.3552 208.379 68.5502 208.97 68.6104C209.345 67.9654 210.05 64.0054 210.47 62.9104C210.5 63.1354 211.76 66.5104 212.105 67.3954V67.3654ZM205.16 54.3754C205.486 54.4714 205.828 54.4983 206.164 54.4542C206.5 54.4102 206.824 54.2962 207.114 54.1195C207.403 53.9429 207.653 53.7076 207.846 53.4287C208.039 53.1498 208.172 52.8336 208.235 52.5004C208.235 52.3054 208.64 52.4104 208.61 52.6054C208.175 55.3504 205.61 55.1404 205.115 54.4804C205.085 54.4654 205.115 54.4054 205.16 54.4054V54.3754ZM205.07 62.8654C206.777 63.1117 208.509 63.1117 210.215 62.8654C209.529 64.5823 208.987 66.3534 208.595 68.1604C208.145 67.8604 205.505 66.3304 204.695 65.7904C204.71 65.7604 205.01 63.9454 205.07 62.8954V62.8654ZM204.5 66.0004C205.204 66.6593 205.979 67.2379 206.81 67.7254C208.115 72.7204 214.31 91.6354 215.525 96.2254C213.65 93.5554 203.645 82.7254 201.14 79.5154C201.865 77.9014 202.486 76.2431 203 74.5504C201.687 74.0411 200.325 73.6691 198.935 73.4404C200.44 71.298 201.637 68.9552 202.49 66.4804C203.105 66.2704 204.5 66.0004 204.5 66.0004ZM175.865 99.9304C177.19 92.4371 180.559 85.4554 185.6 79.7554C188.018 77.0361 190.663 74.5271 193.505 72.2554C196.05 69.8984 198.97 67.9822 202.145 66.5854C200.84 68.8204 199.595 71.4904 198.17 73.6804C198.05 73.8754 201.275 74.4904 202.565 74.9404C202.28 75.4204 200.99 78.7504 200.615 79.6504C200.615 79.7554 213.515 94.2004 215.87 97.5154C215.675 99.8254 217.01 112.095 217.025 112.11C215.63 112.965 214.145 113.94 212.81 114.87C212.69 114.87 213.14 115.665 213.275 115.95C212.72 116.227 212.111 116.381 211.49 116.4C211.655 113.205 211.37 109.5 208.64 107.4C207.442 106.539 206.031 106.02 204.56 105.9C202.175 105.6 199.79 105.465 197.405 105.12C196.385 104.97 195.35 104.79 194.33 104.595V104.505C193.502 99.9195 193.18 95.2565 193.37 90.6004C193.37 90.4804 193.175 90.4354 193.145 90.6004C192.592 95.2499 192.815 99.959 193.805 104.535C187.7 103.38 181.805 101.64 175.805 99.9154L175.865 99.9304ZM164.99 96.9304C165.132 96.221 165.533 95.59 166.115 95.1604C166.57 94.8688 167.106 94.7291 167.645 94.7614C168.184 94.7938 168.699 94.9965 169.115 95.3404C169.572 95.7317 169.901 96.2513 170.059 96.8317C170.216 97.4121 170.196 98.0266 170 98.5954C169.79 99.3004 168.665 101.385 167.765 99.7204C167.819 99.5988 167.864 99.4734 167.9 99.3454C168.047 98.697 168.157 98.041 168.23 97.3804C168.05 97.9804 167.945 98.6254 167.735 99.2104C167.689 99.396 167.603 99.5696 167.484 99.7196C167.365 99.8696 167.215 99.9926 167.045 100.08C166.565 100.245 166.205 99.8704 166.025 99.4653C166.315 98.5658 166.491 97.6336 166.55 96.6904C166.464 97.6796 166.2 98.6451 165.77 99.5404C165.47 100.08 164.9 100.14 164.705 99.5404C164.668 99.337 164.668 99.1287 164.705 98.9254C164.726 98.2469 164.822 97.5729 164.99 96.9154V96.9304ZM143.72 93.9304C143.855 94.0654 143.975 94.2154 144.11 94.3804C144.112 94.4032 144.119 94.4252 144.133 94.4438C144.146 94.4624 144.164 94.4768 144.185 94.4854C144.499 94.8864 144.743 95.3378 144.905 95.8204C145.1 96.4204 145.505 97.9053 144.26 97.3204C143.885 96.789 143.468 96.2875 143.015 95.8204C142.925 95.8204 143.015 95.8204 143.015 95.8204C143.285 96.3004 145.43 99.2554 143.015 98.5954C142.785 97.8996 142.418 97.257 141.935 96.7054C141.909 96.6866 141.877 96.677 141.844 96.678C141.812 96.679 141.781 96.6905 141.755 96.7108C141.73 96.7311 141.712 96.7591 141.704 96.7906C141.696 96.8221 141.698 96.8553 141.71 96.8853C142.01 97.5753 143.69 100.155 141.71 99.4653C140.583 98.8 139.755 97.7254 139.4 96.4653C139.17 95.9019 139.15 95.2744 139.345 94.6976C139.539 94.1208 139.934 93.6331 140.459 93.3237C140.983 93.0143 141.601 92.9038 142.2 93.0125C142.798 93.1211 143.338 93.4416 143.72 93.9154V93.9304ZM85.4754 60.7504C86.1987 60.7481 86.9149 60.8933 87.5802 61.177C88.2456 61.4606 88.8462 61.8769 89.3454 62.4004C89.0754 60.2404 85.8054 57.1654 85.8054 57.1654C81.9804 57.2554 82.8054 53.4754 82.8054 53.4754C82.9781 53.077 83.2444 52.7262 83.5816 52.4526C83.9188 52.1791 84.317 51.9909 84.7424 51.9041C85.1679 51.8172 85.6079 51.8343 86.0254 51.9537C86.4428 52.0732 86.8253 52.2916 87.1404 52.5904C87.1404 53.0554 87.9504 55.1854 89.1204 55.2754C90.2904 55.3654 89.8704 56.5954 89.8704 56.5954C89.8704 56.5954 90.7404 55.4704 89.8704 54.8404C89.0004 54.2104 88.9254 52.5754 88.9254 52.5754C93.8454 52.1254 97.3104 40.2904 97.3104 40.2904C98.5704 46.8454 105.68 46.9654 105.68 46.9654C105.692 50.8559 105.462 54.7434 104.99 58.6054C104.786 59.7749 104.197 60.8426 103.316 61.6389C102.436 62.4352 101.314 62.9144 100.13 63.0004C100.13 63.0004 100.13 66.9304 100.34 68.0254C98.706 69.4358 96.6191 70.2117 94.4604 70.2117C92.3016 70.2117 90.2147 69.4358 88.5804 68.0254V66.5254C89.2765 66.5738 89.976 66.5436 90.6654 66.4354C86.4654 65.6104 85.4754 60.7504 85.4754 60.7504ZM87.7854 69.5254C89.2854 72.3154 97.7904 74.0254 101.285 68.9554C102.939 68.966 104.589 69.1065 106.22 69.3754C105.065 81.2704 87.4704 81.6904 83.2854 71.5054C84.7404 70.8154 86.2554 70.1704 87.7854 69.5254ZM61.4454 117C53.4204 105.36 59.3604 89.6854 68.7354 80.7154C72.87 76.9321 77.6243 73.8878 82.7904 71.7154C84.5004 77.1604 91.2954 79.8904 96.6504 79.2154C99.1944 78.9762 101.581 77.8769 103.416 76.0989C105.251 74.321 106.426 71.9705 106.745 69.4354C111.038 70.1848 115.125 71.825 118.745 74.2504C122.555 76.8215 125.928 79.9866 128.735 83.6254C132.365 88.2304 134.42 93.8104 136.58 99.2254C132.965 101.73 128.72 104.355 124.37 106.815C123.62 106.245 121.91 104.73 121.565 104.415C121.68 99.9719 120.734 95.5652 118.805 91.5604H118.655C121.745 99.1954 120.89 105.585 121.025 108.585C113.105 112.845 105.455 116.25 101.525 117.09C101.525 117.09 101.525 116.865 101.405 116.835C95.1204 114.75 76.3854 108.075 76.3554 108.075C76.7432 105.566 76.9986 103.037 77.1204 100.5C77.1204 100.5 77.0004 100.5 77.0004 100.59C76.3554 103.065 76.2654 105.75 75.8604 108.285C75.8527 108.331 75.8586 108.378 75.8772 108.421C75.8959 108.464 75.9265 108.5 75.9654 108.525C84.1254 112.05 92.7354 114.525 101.195 117.21C101.394 120.071 101.263 122.945 100.805 125.775C87.5004 126.99 70.2954 129.825 61.4454 117ZM123.905 107.085C123.065 107.565 122.21 108.03 121.37 108.48C121.46 107.355 121.52 106.17 121.535 104.955C122.249 105.746 123.043 106.46 123.905 107.085ZM101.69 119.34C102.189 119.552 102.724 119.66 103.265 119.66C103.807 119.66 104.342 119.552 104.84 119.34C105.95 118.755 106.505 117.54 107.51 116.805C107.576 117.625 107.353 118.442 106.88 119.115C106.775 119.25 106.88 119.415 107.09 119.4C108.11 119.55 110.225 119.145 110.96 119.745C111.995 120.57 108.305 120.93 107.36 121.05C107.21 121.05 107.255 121.29 107.36 121.305C108.527 121.298 109.686 121.111 110.795 120.75C111.68 123 107.945 122.49 107.24 122.745C107.21 122.755 107.184 122.774 107.166 122.8C107.147 122.825 107.137 122.856 107.137 122.888C107.137 122.919 107.147 122.95 107.166 122.976C107.184 123.001 107.21 123.02 107.24 123.03C108.115 123.09 108.993 123.03 109.85 122.85C110.645 124.725 103.31 126.195 101.465 123.705C101.67 122.26 101.745 120.799 101.69 119.34ZM78.7854 147C78.7854 146.91 78.9804 147 78.9654 147C78.5904 152.7 74.9904 175.89 73.8954 181.755C73.8954 181.92 73.6254 181.845 73.6554 181.755C74.4354 175.965 77.6454 152.76 78.7854 147ZM66.8604 184.995C68.4276 185.781 70.0405 186.472 71.6904 187.065C71.6904 187.5 71.7804 188.1 71.8254 188.775C68.1054 188.415 64.5654 189.15 60.8604 188.895C60.8604 187.56 60.7554 185.1 60.7554 185.1C61.7604 185.07 64.5954 185.01 66.8604 185.04V184.995ZM67.9554 189.315H71.7504C71.8854 191.13 72.0354 193.62 72.1854 196.29C70.854 196.103 69.5064 196.058 68.1654 196.155C68.2374 193.889 68.1824 191.62 68.0004 189.36L67.9554 189.315ZM67.5804 196.14C67.4154 196.14 63.0804 196.14 61.1154 196.23C61.1154 194.43 60.8604 189.87 60.8604 189.39C63.0779 189.539 65.3029 189.539 67.5204 189.39C67.2541 191.649 67.2743 193.932 67.5804 196.185V196.14ZM9.26038 176.88C22.7604 165.09 35.8404 153.9 49.6404 142.38C54.7554 146.88 60.3954 150.9 65.8854 154.995C64.1904 162.87 62.3304 171.495 61.2504 176.46C47.4354 176.7 17.7054 177 9.26038 176.88ZM11.8104 226.275C11.9058 224.177 11.7751 222.075 11.4204 220.005C16.4454 220.605 61.6104 220.095 74.0004 219.9C74.0904 221.4 74.2404 223.425 74.3904 225.645C60.5004 225.645 22.0404 226.005 11.8104 226.275ZM46.1304 206.085C48.8751 205.871 51.631 205.835 54.3804 205.98C54.3804 205.98 54.3804 217.2 54.6204 219.63L46.4154 219.765C46.2954 215.07 46.4154 210.75 46.1304 206.085ZM82.9404 246.585C74.6004 248.01 69.6654 247.185 67.0404 247.35C66.9354 246.675 68.0454 245.13 68.5404 244.755C69.0354 244.38 75.5004 241.29 75.5004 241.29C77.5254 244.965 81.7104 243.195 83.0004 242.55C83.3388 243.894 83.3388 245.301 83.0004 246.645L82.9404 246.585ZM88.2054 220.23C83.0454 222.495 77.9304 221.07 73.8354 217.395L73.9554 219.255L55.1754 219.555C55.3972 214.872 55.2618 210.178 54.7704 205.515C54.7704 205.515 48.4104 204.66 45.5754 205.41C45.4854 205.41 45.6504 215.01 45.7704 219.705L17.2704 219.6C17.2704 219.6 16.7604 191.535 15.9654 177.6C22.3554 177.795 48.1404 177.3 61.1754 177.03L60.3804 180.675C62.0028 182.184 63.8188 183.47 65.7804 184.5C64.0078 184.314 62.2164 184.436 60.4854 184.86C60.4758 184.895 60.4758 184.931 60.4854 184.965C60.1705 188.862 60.2308 192.78 60.6654 196.665C60.6654 196.665 60.7704 196.845 60.8454 196.845C62.7054 196.965 70.1904 196.62 72.3804 196.935C72.7254 203.13 73.1304 210.135 73.5204 212.535C73.5204 212.535 73.9554 217.23 74.0304 217.275C76.1454 218.775 81.3654 222.96 88.1304 219.975C88.2654 219.87 88.4004 220.215 88.2054 220.29V220.23ZM89.4804 214.41C83.0004 216 75.8004 213.24 74.0004 212.43C73.4004 208.05 73.0404 191.145 72.1254 187.245C79.4947 189.715 87.2293 190.917 95.0004 190.8C93.8304 194.55 90.3054 210.405 89.4804 214.5V214.41ZM87.2604 163.41C87.2709 163.377 87.2918 163.347 87.3201 163.327C87.3484 163.306 87.3827 163.295 87.4179 163.295C87.453 163.295 87.4873 163.306 87.5156 163.327C87.544 163.347 87.5649 163.377 87.5754 163.41C87.5754 168.57 87.7404 173.745 87.5754 178.905C87.5754 179.055 87.3354 179.055 87.3204 178.905C87.0954 173.82 87.2454 168.645 87.2604 163.5V163.41ZM98.7054 131.43C95.3454 131.61 79.2054 132.36 74.5704 130.08H74.4954C73.3147 128.865 72.6026 127.271 72.4854 125.58C73.1154 125.805 73.7754 126 74.4204 126.18C82.5054 128.295 90.9204 127.05 99.0654 126.315C98.8351 128.036 98.7149 129.769 98.7054 131.505V131.43ZM114.86 216.165C113.36 211.86 108.98 194.145 107.165 189.99C108.665 189.81 111.86 189.255 112.985 189.06C114.485 192.195 116.285 195.225 117.935 198.27C119.585 201.315 121.34 204.585 123.155 207.66C124.655 210.135 126.155 212.565 127.82 214.905C122.795 218.43 116.84 216.9 114.86 216.24V216.165ZM136.625 245.61C131.87 245.715 128.09 246.09 123.125 245.82C122.773 244.179 122.717 242.487 122.96 240.825C127.61 244.68 129.47 239.67 129.47 239.67C130.505 240.63 136.58 243.435 136.625 245.685V245.61ZM196.445 229.86C199.82 230.85 204.575 230.205 207.905 229.515C207.755 230.76 208.73 235.245 203.225 235.875C196.355 236.76 196.745 231.105 196.445 229.935V229.86ZM201.065 243.525C199.16 243.84 191.6 245.025 191.075 241.83C191.645 242.212 192.31 242.425 192.995 242.445C195.605 242.655 208.16 240.375 208.865 239.535C209.66 242.85 203.12 243.27 201.065 243.6V243.525ZM208.865 239.205C208.07 239.94 197.75 241.77 195.62 241.935C193.49 242.1 189.74 242.43 191.315 239.175C191.647 238.521 192.065 237.916 192.56 237.375C193.18 237.989 193.837 238.565 194.525 239.1C194.705 239.22 194.885 239.01 194.795 238.83C194.325 238.072 193.648 237.464 192.845 237.075C193.28 236.625 193.775 236.175 194.27 235.755C194.57 235.995 195.635 237.165 195.965 237.36C195.999 237.38 196.038 237.389 196.077 237.387C196.116 237.384 196.154 237.369 196.185 237.345C196.215 237.321 196.238 237.288 196.25 237.25C196.262 237.213 196.262 237.173 196.25 237.135C195.918 236.407 195.346 235.814 194.63 235.455L195.725 234.57C196.52 235.08 197.225 235.71 198.005 236.25C198.11 236.25 198.245 236.25 198.17 236.1C197.579 235.361 196.831 234.761 195.98 234.345C196.277 234.103 196.588 233.878 196.91 233.67C197.574 234.537 198.43 235.237 199.411 235.716C200.392 236.194 201.47 236.438 202.562 236.428C203.653 236.418 204.727 236.154 205.699 235.657C206.67 235.16 207.513 234.444 208.16 233.565C209.24 234.705 208.865 238.305 208.865 239.28V239.205ZM211.49 178.89C210.35 193.245 193.64 221.1 193.64 221.1V221.46C185 234 173.525 241.5 169.07 245.085C162.8 243.21 157.16 239.565 151.775 235.935C145.981 232.225 140.534 227.997 135.5 223.305C130.711 218.409 126.604 212.889 123.29 206.895C119.81 200.895 116.87 194.625 113.24 188.76C111.74 185.55 99.9354 158.52 99.3204 131.475C99.4574 129.779 99.4825 128.075 99.3954 126.375L100.805 126.255C100.899 126.196 100.968 126.106 101 126C101.169 125.389 101.299 124.768 101.39 124.14C102.191 124.699 103.105 125.072 104.068 125.233C105.031 125.394 106.017 125.338 106.955 125.07C108.05 124.83 110.75 124.32 110.195 122.655C110.366 122.591 110.527 122.506 110.675 122.4C110.832 122.32 110.967 122.203 111.068 122.059C111.169 121.916 111.233 121.749 111.255 121.575C111.278 121.4 111.257 121.223 111.195 121.059C111.133 120.894 111.032 120.747 110.9 120.63C111.44 120.36 111.68 119.985 111.26 119.46C111.035 119.273 110.774 119.135 110.492 119.055C110.21 118.975 109.915 118.955 109.625 118.995C108.823 118.985 108.02 119.035 107.225 119.145C107.765 118.395 108.05 115.815 107.315 116.265C106.643 116.786 106.055 117.408 105.575 118.11C104.45 119.4 103.145 119.265 101.615 119.025C101.615 118.5 101.615 117.975 101.48 117.525C104.5 117.143 107.429 116.234 110.135 114.84C113.645 113.34 130.67 105.495 139.55 97.7554C139.783 98.2799 140.121 98.7506 140.545 99.1379C140.968 99.5251 141.467 99.8205 142.01 100.005C143 100.23 143.18 99.6604 143.03 98.9404C143.137 99.0177 143.261 99.0683 143.392 99.0879C143.522 99.1075 143.656 99.0954 143.78 99.0528C143.905 99.0102 144.018 98.9382 144.11 98.843C144.201 98.7477 144.268 98.6319 144.305 98.5054C144.418 98.1952 144.418 97.8555 144.305 97.5453C144.845 97.8304 145.235 97.8754 145.4 97.2304C145.455 96.7073 145.404 96.1786 145.249 95.6759C145.095 95.1732 144.84 94.707 144.5 94.3054C145.565 93.4654 146.555 92.5504 147.605 91.6954C149.75 89.9854 152.375 91.9804 154.52 92.8954C157.79 94.3054 164.48 97.1703 164.525 97.1104C164.43 97.5106 164.36 97.9164 164.315 98.3254C164.315 98.8804 164 99.9454 164.72 100.23C165.185 100.41 165.53 100.14 165.77 99.6904C165.814 99.8397 165.891 99.977 165.997 100.091C166.102 100.206 166.233 100.294 166.378 100.349C166.524 100.404 166.68 100.425 166.835 100.41C166.99 100.394 167.139 100.343 167.27 100.26C167.384 100.187 167.485 100.096 167.57 99.9904C167.975 100.65 168.725 101.01 169.34 100.41C169.828 99.9422 170.18 99.3516 170.36 98.7004C177.987 101.366 185.798 103.472 193.73 105C197.495 105.705 201.335 105.84 205.1 106.5C210.17 107.355 211.265 111.93 211.1 116.4C210.735 116.381 210.373 116.32 210.02 116.22C209.244 115.98 208.483 115.695 207.74 115.365C207.74 115.365 207.65 115.365 207.65 115.455C207.499 116.049 207.547 116.676 207.785 117.24C207.921 117.68 208.215 118.055 208.61 118.29C207.722 118.753 206.932 119.385 206.285 120.15C205.85 120.6 204.635 121.65 204.785 122.4C204.935 123.15 205.715 122.94 206.285 122.775C206.224 122.909 206.199 123.056 206.21 123.203C206.221 123.35 206.27 123.491 206.351 123.614C206.432 123.737 206.542 123.837 206.673 123.906C206.803 123.974 206.948 124.008 207.095 124.005H207.56C208.49 125.055 209.84 124.185 210.785 123.57L212.03 122.775C212.03 126.36 212.585 129.96 212.915 133.53C213.155 136.275 213.275 139.065 213.635 141.81C214.355 162.42 212.615 164.64 211.49 178.965V178.89ZM214.145 141.705C213.95 138.705 213.53 135.705 213.275 132.705C212.975 129.3 212.855 125.82 212.315 122.445C213.474 121.704 214.537 120.822 215.48 119.82C216.245 121.035 217.055 122.22 217.775 123.375C217.978 123.5 218.202 123.586 218.435 123.63C218.165 126.63 219.62 138.165 220.16 142.275C217.25 142.185 215.09 141.915 214.145 141.78V141.705ZM220.445 142.305C220.13 138.135 219.32 126.63 218.945 123.63C229.535 123.465 240.785 120.54 248.42 112.965C248.585 117.645 250.04 131.655 250.115 133.965C250.223 134.68 250.149 135.411 249.9 136.09C249.651 136.769 249.235 137.375 248.69 137.85C239.24 142.5 227.66 142.785 220.445 142.38V142.305ZM241.445 241.695C239.03 242.79 234.17 244.92 232.55 241.875C233.398 241.949 234.252 241.868 235.07 241.635C239.557 240.77 243.798 238.926 247.49 236.235C249.125 238.02 242.39 241.305 241.37 241.77L241.445 241.695ZM247.34 235.86C243.867 238.452 239.851 240.221 235.595 241.035C234.26 241.305 232.115 241.83 231.845 240.045C231.889 239.385 232.129 238.753 232.535 238.23C232.7 237.93 232.895 237.645 233.09 237.36C233.632 237.649 234.103 238.054 234.47 238.545C234.635 238.665 234.785 238.44 234.725 238.29C234.392 237.744 233.893 237.318 233.3 237.075C233.585 236.685 233.885 236.31 234.185 235.935C235.25 236.37 235.535 237.21 235.85 237.435C236.165 237.66 236.12 237.435 236.075 237.27C235.697 236.579 235.123 236.016 234.425 235.65L235.19 234.72C236.33 235.425 236.69 236.34 237.02 236.655C237.155 236.76 237.425 236.655 237.35 236.46C236.951 235.597 236.31 234.868 235.505 234.36L236.3 233.37C238.07 236.37 244.88 234.87 245.135 231.42C245.991 232.852 246.704 234.365 247.265 235.935L247.34 235.86ZM244.04 227.52C244.34 228.63 246.515 233.355 240.71 234.405C236.675 235.14 235.13 230.325 235.04 230.13C238.184 230.067 241.258 229.194 243.965 227.595L244.04 227.52ZM282.5 204.57C281.795 204.255 281.795 203.655 281.54 203.07C281.203 202.097 280.755 201.166 280.205 200.295C277.73 196.995 272.705 197.895 269.51 199.695C268.715 200.172 268.042 200.826 267.542 201.607C267.042 202.388 266.73 203.274 266.63 204.195C266.613 204.597 266.573 204.998 266.51 205.395C266.225 206.4 266 206.37 264.92 206.505C263.525 206.685 250.895 207.555 243.755 207.765C242.63 201.195 241.52 194.685 241.04 192.03C240.328 189.043 240.21 185.944 240.695 182.91C242.515 180.187 243.897 177.196 244.79 174.045C249.455 173.73 259.79 172.83 262.43 173.52C265.715 174.42 267.47 177.21 268.685 180.18C269.9 183.15 270.83 186.45 271.88 189.405C271.88 189.525 272.195 189.585 272.24 189.585C274.85 189.585 277.52 189.21 280.13 189.09C282.74 188.97 286.25 187.98 288.47 189.63C290.095 191.148 291.109 193.207 291.32 195.42C291.84 198.316 292.091 201.254 292.07 204.195C289.43 204.105 282.92 204.765 282.5 204.57Z" fill="#919191"/>
<path d="M278.257 212.25C278.765 211.846 279.185 211.342 279.492 210.77C279.799 210.197 279.986 209.569 280.042 208.922C280.098 208.275 280.022 207.623 279.818 207.007C279.615 206.39 279.287 205.821 278.857 205.335C277.932 204.179 276.645 203.368 275.202 203.033C273.76 202.698 272.247 202.859 270.907 203.49C267.817 205.32 268.747 209.175 270.157 211.125C271.777 213.345 276.037 213.75 278.257 212.25ZM271.147 204C272.05 203.561 273.056 203.378 274.055 203.47C275.055 203.563 276.01 203.928 276.817 204.525C278.917 205.89 280.237 209.13 278.317 211.2C276.817 212.805 273.187 212.7 271.522 211.425C268.312 209.01 269.482 204.81 271.147 204Z" fill="#919191"/>
<path d="M274.999 208.501C275.274 208.22 275.428 207.843 275.428 207.451C275.428 207.058 275.274 206.681 274.999 206.401C274.721 206.139 274.354 205.994 273.972 205.994C273.59 205.994 273.222 206.139 272.944 206.401C272.804 206.518 272.689 206.663 272.607 206.827C272.525 206.991 272.478 207.17 272.468 207.353C272.458 207.536 272.486 207.719 272.55 207.891C272.614 208.062 272.712 208.219 272.839 208.351C272.969 208.506 273.128 208.634 273.308 208.726C273.489 208.818 273.685 208.872 273.887 208.886C274.089 208.9 274.292 208.873 274.483 208.807C274.674 208.741 274.849 208.637 274.999 208.501ZM274.384 206.716C274.497 206.759 274.598 206.829 274.679 206.92C274.76 207.01 274.818 207.118 274.849 207.235C274.879 207.352 274.882 207.475 274.856 207.593C274.83 207.712 274.776 207.822 274.699 207.916C273.184 209.521 272.299 206.026 274.354 206.686L274.384 206.716ZM261.184 178.681C258.184 176.371 252.514 177.961 249.319 178.921C249.286 178.924 249.255 178.94 249.233 178.965C249.211 178.99 249.199 179.022 249.199 179.056C249.469 182.581 250.294 186.331 250.849 189.826C250.849 189.826 260.254 188.641 264.919 188.656C265.039 188.656 265.264 188.656 265.249 188.491C264.814 185.131 264.049 180.901 261.184 178.681ZM251.269 189.181C250.774 185.941 250.564 182.596 249.919 179.371C253.084 178.771 258.334 177.076 261.049 179.521C263.419 181.636 263.959 185.056 264.409 188.041C262.219 188.041 253.459 188.851 251.269 189.211V189.181ZM276.409 218.191C272.059 215.566 266.029 216.451 261.409 218.191C258.98 219.078 256.699 220.327 254.644 221.896C253.039 223.141 251.539 224.596 251.869 226.771C251.869 227.101 254.344 234.976 254.389 234.991C258.394 237.556 264.334 237.391 268.774 236.326C271.242 235.743 273.605 234.781 275.779 233.476C277.722 232.267 279.315 230.571 280.399 228.556C280.399 228.556 280.009 223.561 279.994 223.441C279.866 222.341 279.473 221.288 278.849 220.374C278.224 219.459 277.387 218.71 276.409 218.191ZM253.534 223.726C255.407 221.759 257.684 220.224 260.209 219.226C265.039 217.081 271.939 216.361 275.944 218.716C278.539 220.216 280.279 223.381 278.374 226.216C276.776 228.12 274.707 229.573 272.374 230.431C267.649 232.546 261.094 234.241 256.309 231.436C253.744 229.936 251.269 226.501 253.534 223.726ZM274.789 233.251C272.857 234.313 270.787 235.106 268.639 235.606C264.152 236.787 259.398 236.428 255.139 234.586C255.139 234.586 254.014 231.226 253.459 229.576C254.494 230.813 255.795 231.8 257.265 232.462C258.736 233.125 260.337 233.446 261.949 233.401C267.217 233.266 272.326 231.575 276.634 228.541C277.8 227.796 278.723 226.728 279.289 225.466C279.424 226.426 279.544 228.391 279.544 228.466C278.423 230.463 276.779 232.117 274.789 233.251Z" fill="#919191"/>
<path d="M263.286 229.861L262.836 230.656C262.671 230.956 263.136 231.226 263.301 230.926L263.811 230.041C264.317 230.193 264.85 230.226 265.371 230.138C265.891 230.049 266.384 229.841 266.811 229.531C267.066 229.336 266.811 228.946 266.481 229.096C265.765 229.495 264.931 229.628 264.126 229.471C264.996 227.971 265.926 226.606 266.871 225.226C267.216 225.226 267.561 225.226 267.921 225.316C268.596 225.422 269.288 225.316 269.901 225.013C270.514 224.709 271.017 224.223 271.341 223.621C271.547 223.078 271.576 222.485 271.425 221.925C271.275 221.365 270.951 220.866 270.501 220.501L270.276 220.351L270.786 219.571C270.795 219.56 270.802 219.547 270.806 219.534C270.81 219.52 270.811 219.506 270.81 219.492C270.808 219.479 270.804 219.465 270.797 219.453C270.791 219.44 270.782 219.429 270.771 219.421C270.76 219.412 270.748 219.405 270.734 219.401C270.721 219.397 270.707 219.396 270.693 219.397C270.679 219.398 270.666 219.403 270.653 219.409C270.641 219.416 270.63 219.425 270.621 219.436C270.381 219.676 270.141 219.916 269.916 220.171C269.117 219.943 268.276 219.896 267.456 220.033C266.636 220.171 265.857 220.489 265.176 220.966C265.041 221.056 265.176 221.296 265.296 221.236C266.059 220.89 266.867 220.653 267.696 220.531C268.294 220.459 268.9 220.505 269.481 220.666C268.395 221.934 267.393 223.272 266.481 224.671C264.906 224.506 263.091 224.386 261.981 225.841C261.731 226.172 261.565 226.558 261.497 226.967C261.428 227.376 261.459 227.796 261.587 228.19C261.715 228.585 261.937 228.942 262.232 229.233C262.528 229.524 262.89 229.739 263.286 229.861ZM269.961 220.756C270.341 220.883 270.66 221.147 270.857 221.496C271.053 221.845 271.114 222.255 271.026 222.646C270.636 224.656 268.896 224.821 267.276 224.686C268.176 223.381 269.076 222.076 269.961 220.756ZM264.501 225.076C265 225.02 265.503 225.02 266.001 225.076C265.116 226.441 264.291 227.851 263.496 229.231C260.766 228.001 262.356 225.331 264.501 225.076ZM98.1061 258.916C97.5946 257.559 96.7629 256.345 95.6817 255.379C94.6004 254.413 93.3017 253.722 91.8961 253.366C87.7177 252.298 83.3139 252.523 79.2661 254.011C75.7561 255.121 70.2661 258.226 71.3761 262.756C71.5111 263.716 73.3561 270.616 73.4611 270.616C77.0311 274.276 83.0911 274.171 87.7561 273.616C91.8961 273.061 97.7761 271.546 99.3961 267.106C99.1254 264.394 98.7047 261.7 98.136 259.036C98.1441 259.026 98.1499 259.016 98.1527 259.004C98.1556 258.992 98.1556 258.979 98.1527 258.968C98.1497 258.956 98.1439 258.945 98.1358 258.936C98.1277 258.927 98.1175 258.92 98.1061 258.916ZM72.3211 259.501C73.7959 257.139 76.1027 255.415 78.7861 254.671C82.9393 253.091 87.4739 252.809 91.7911 253.861C94.7011 254.536 98.3911 257.401 97.7911 260.791C97.2811 263.926 94.7911 265.291 92.1061 266.326C87.2138 268.471 81.7027 268.738 76.6261 267.076C73.4761 265.846 70.3711 263.086 72.3211 259.501ZM87.0211 273.106C84.6812 273.414 82.311 273.414 79.9711 273.106C77.7199 272.689 75.5827 271.8 73.7011 270.496C73.7011 270.496 72.8911 266.686 72.4261 264.871C74.7361 267.736 79.7311 268.501 83.0011 268.501C85.7507 268.497 88.4797 268.025 91.0711 267.106C93.2836 266.527 95.3157 265.403 96.9811 263.836C97.4712 263.279 97.8482 262.632 98.091 261.931C98.301 263.626 98.946 266.971 98.946 266.971C96.126 271.051 91.7761 272.476 87.0211 273.001V273.106Z" fill="#919191"/>
<path d="M82.0113 265.351L81.6663 265.891C81.5613 266.056 81.8163 266.266 81.9363 266.101L82.3713 265.516C82.9809 265.777 83.6419 265.897 84.3045 265.866C84.9672 265.835 85.614 265.653 86.1963 265.336C86.4213 265.201 86.2863 264.811 86.0163 264.901C84.9528 265.315 83.7828 265.367 82.6863 265.051C83.5713 263.716 85.5363 260.191 85.7613 259.861C87.1113 260.011 88.5513 260.056 89.3913 258.796C89.5957 258.579 89.7431 258.315 89.8203 258.027C89.8975 257.74 89.9021 257.437 89.8337 257.148C89.7653 256.858 89.6261 256.589 89.4285 256.366C89.2308 256.144 88.981 255.973 88.7013 255.871L88.9863 255.466C89.0913 255.331 88.8813 255.196 88.7613 255.301L88.3263 255.721C87.7054 255.482 87.0367 255.392 86.3747 255.46C85.7126 255.528 85.076 255.751 84.5163 256.111C84.3963 256.216 84.5163 256.366 84.6813 256.306C85.4384 255.984 86.2606 255.845 87.0813 255.901C87.3892 255.922 87.6924 255.987 87.9813 256.096C87.052 257.099 86.2277 258.195 85.5213 259.366C84.8279 259.209 84.1162 259.149 83.4063 259.186C82.7291 259.258 82.0847 259.515 81.5427 259.927C81.0007 260.34 80.5818 260.892 80.3313 261.526C80.0593 262.257 80.0825 263.065 80.3961 263.779C80.7097 264.493 81.2891 265.057 82.0113 265.351ZM88.3863 256.351C89.6913 257.176 89.3163 259.051 87.1713 259.456C86.8032 259.508 86.4295 259.508 86.0613 259.456C86.7963 258.361 87.5913 257.341 88.3863 256.306V256.351ZM85.2513 259.861C84.2313 261.526 83.3313 263.266 82.2513 264.916C81.9155 264.738 81.6214 264.492 81.3886 264.191C81.1558 263.891 80.9897 263.545 80.9013 263.176C80.1963 260.266 83.0013 259.591 85.2513 259.816V259.861ZM55.3413 233.431C51.4474 231.382 46.9751 230.711 42.6513 231.526C39.0363 231.931 33.0513 233.941 33.3213 238.546C33.3213 239.476 33.6813 246.556 33.7713 246.586C36.4863 250.786 42.2163 251.956 46.8363 252.331C51.0663 252.676 57.3363 252.481 59.8863 248.356L60.2913 240.151C60.056 238.719 59.4846 237.364 58.6242 236.196C57.7638 235.028 56.6387 234.08 55.3413 233.431ZM59.4813 248.236C55.9563 251.536 51.5313 252.106 46.8363 251.731C44.4699 251.597 42.1305 251.158 39.8763 250.426C37.6715 249.557 35.6808 248.222 34.0413 246.511C34.0413 246.511 34.0413 242.626 33.9363 240.766C35.6613 244.141 40.5963 245.926 43.9263 246.571C46.5377 247.07 49.2135 247.136 51.8463 246.766C54.0908 246.631 56.2687 245.952 58.1913 244.786C58.7945 244.333 59.3039 243.768 59.6913 243.121C59.5263 244.816 59.4813 248.236 59.4813 248.236ZM59.8113 241.366C58.9263 244.516 56.1813 245.476 53.2863 246.046C48.0674 247.215 42.6013 246.441 37.9113 243.871C35.1213 242.221 32.3463 239.116 34.6113 235.846C35.4752 234.778 36.5439 233.893 37.7546 233.244C38.9653 232.595 40.2936 232.194 41.6613 232.066C46.231 231.126 50.9838 231.744 55.1613 233.821C57.6063 235.051 60.6813 238.321 59.8113 241.366Z" fill="#919191"/>
<path d="M51.8006 235.126L52.0556 234.901C52.1756 234.796 52.0556 234.601 51.8756 234.676L51.5156 234.916C50.9162 234.599 50.2586 234.408 49.583 234.354C48.9073 234.3 48.2278 234.384 47.5856 234.601C47.5572 234.615 47.5348 234.638 47.5221 234.667C47.5094 234.696 47.5074 234.729 47.5163 234.759C47.5253 234.79 47.5446 234.816 47.571 234.834C47.5974 234.851 47.6291 234.859 47.6606 234.856C48.8024 234.669 49.9735 234.793 51.0506 235.216C50.013 235.951 49.0486 236.785 48.1706 237.706L47.3156 237.586C46.6065 237.369 45.8574 237.315 45.1248 237.43C44.3921 237.544 43.6949 237.823 43.0856 238.246C42.6999 238.533 42.3891 238.909 42.1792 239.342C41.9694 239.775 41.8668 240.252 41.88 240.733C41.8933 241.214 42.022 241.685 42.2553 242.105C42.4886 242.526 42.8197 242.885 43.2206 243.151L42.7706 243.616C42.6056 243.766 42.8456 243.991 43.0256 243.856L43.5356 243.391C44.0661 243.797 44.6896 244.064 45.3496 244.169C46.0096 244.274 46.6853 244.213 47.3156 243.991C47.364 243.964 47.4019 243.922 47.4229 243.871C47.4439 243.82 47.4467 243.763 47.4309 243.711C47.415 243.658 47.3815 243.612 47.3359 243.581C47.2904 243.55 47.2355 243.536 47.1806 243.541C46.0907 243.67 44.9865 243.483 44.0006 243.001C45.2156 241.816 48.0056 238.591 48.3206 238.291C49.2761 238.485 50.2646 238.444 51.2006 238.171C51.6314 238.057 52.0015 237.781 52.2336 237.401C52.4657 237.021 52.5416 236.566 52.4456 236.131C52.3501 235.732 52.1228 235.378 51.8006 235.126ZM43.5956 242.761C43.3265 242.61 43.0906 242.407 42.9018 242.163C42.7131 241.919 42.5754 241.64 42.497 241.341C42.4186 241.043 42.401 240.732 42.4455 240.427C42.4899 240.122 42.5954 239.829 42.7556 239.566C43.5806 237.901 45.2306 237.826 46.8356 238.066L47.7056 238.201C46.2956 239.671 45.0056 241.276 43.5956 242.761ZM50.1656 237.796C49.7117 237.841 49.2545 237.841 48.8006 237.796C49.6556 237.001 50.5556 236.296 51.4406 235.471C51.6016 235.595 51.7296 235.758 51.8133 235.943C51.8969 236.129 51.9338 236.332 51.9206 236.536C51.9056 237.556 50.9456 237.736 50.1656 237.796Z" fill="#919191"/>
</svg>
