<svg width="97" height="92" viewBox="0 0 97 92" fill="none" xmlns="http://www.w3.org/2000/svg">
<path d="M27.5365 21.6742L40.9532 4.30436C41.9115 3.02658 43.0495 2.08822 44.3672 1.48926C45.6849 0.8903 47.0625 0.59082 48.5 0.59082C49.9375 0.59082 51.3151 0.8903 52.6329 1.48926C53.9506 2.08822 55.0886 3.02658 56.0469 4.30436L69.4636 21.6742L89.8282 28.5023C91.9046 29.1412 93.5417 30.3191 94.7396 32.0361C95.9375 33.7531 96.5365 35.6498 96.5365 37.7262C96.5365 38.6846 96.3968 39.6429 96.1172 40.6012C95.8377 41.5596 95.3785 42.478 94.7396 43.3564L81.5625 62.0439L82.0417 81.6898C82.1216 84.4849 81.2032 86.8408 79.2865 88.7575C77.3698 90.6741 75.1337 91.6325 72.5782 91.6325C72.4184 91.6325 71.54 91.5127 69.9428 91.2731L48.5 85.2835L27.0573 91.2731C26.658 91.4328 26.2188 91.5327 25.7396 91.5726C25.2605 91.6125 24.8212 91.6325 24.4219 91.6325C21.8664 91.6325 19.6303 90.6741 17.7136 88.7575C15.7969 86.8408 14.8785 84.4849 14.9584 81.6898L15.4375 61.9242L2.38025 43.3564C1.74136 42.478 1.28216 41.5596 1.00264 40.6012C0.723131 39.6429 0.583374 38.6846 0.583374 37.7262C0.583374 35.7297 1.16237 33.8729 2.32035 32.1559C3.47834 30.4389 5.09553 29.221 7.17192 28.5023L27.5365 21.6742ZM33.4063 29.9398L10.1667 37.6064L25.0209 59.0492L24.5417 81.9294L48.5 75.3408L72.4584 82.0491L71.9792 59.0492L86.8334 37.846L63.5938 29.9398L48.5 10.1742L33.4063 29.9398Z" fill="#ADE8F4"/>
</svg>
