<svg width="158" height="77" viewBox="0 0 158 77" fill="none" xmlns="http://www.w3.org/2000/svg">
<path d="M131.425 35.4286C140.656 35.4286 148.14 27.9453 148.14 18.7143C148.14 9.48324 140.656 2 131.425 2C122.194 2 114.711 9.48324 114.711 18.7143C114.711 27.9453 122.194 35.4286 131.425 35.4286Z" stroke="#969696" stroke-width="3.66667" stroke-linecap="round" stroke-linejoin="round"/>
<path d="M107 74.0003V66.286C107 62.1941 108.716 58.2698 111.77 55.3763C114.824 52.4829 118.966 50.8574 123.286 50.8574H139.571C143.891 50.8574 148.033 52.4829 151.087 55.3763C154.141 58.2698 155.857 62.1941 155.857 66.286V74.0003" stroke="#969696" stroke-width="3.66667" stroke-linecap="round" stroke-linejoin="round"/>
<rect x="0.5" y="2.5" width="114" height="74" rx="7.5" fill="white"/>
<rect x="0.5" y="2.5" width="114" height="74" rx="7.5" stroke="#434343"/>
<path d="M22.5 35C26.0899 35 29 32.0899 29 28.5C29 24.9101 26.0899 22 22.5 22C18.9101 22 16 24.9101 16 28.5C16 32.0899 18.9101 35 22.5 35Z" stroke="#434343" stroke-width="3.66667" stroke-linecap="round" stroke-linejoin="round"/>
<path d="M13 50V47C13 45.4087 13.6673 43.8826 14.855 42.7574C16.0427 41.6321 17.6536 41 19.3333 41H25.6667C27.3464 41 28.9573 41.6321 30.145 42.7574C31.3327 43.8826 32 45.4087 32 47V50" stroke="#434343" stroke-width="3.66667" stroke-linecap="round" stroke-linejoin="round"/>
<circle cx="8.5" cy="10.5" r="4.5" fill="#434343"/>
<line x1="18" y1="12" x2="47" y2="12" stroke="#434343" stroke-width="2"/>
<line x1="21" y1="9" x2="45" y2="9" stroke="#434343" stroke-width="2"/>
<line x1="50" y1="12" x2="79" y2="12" stroke="#434343" stroke-width="2"/>
<line x1="53" y1="9" x2="77" y2="9" stroke="#434343" stroke-width="2"/>
<line x1="80" y1="9" x2="103" y2="9" stroke="#434343" stroke-width="2"/>
<line x1="82" y1="12" x2="101.034" y2="12" stroke="#434343" stroke-width="2"/>
<line x1="41" y1="22.5" x2="65" y2="22.5" stroke="#434343" stroke-width="3"/>
<line x1="41" y1="31.5" x2="65" y2="31.5" stroke="#434343" stroke-width="3"/>
<line x1="41" y1="51.5" x2="86" y2="51.5" stroke="#434343" stroke-width="3"/>
<line x1="41" y1="42.5" x2="59" y2="42.5" stroke="#434343" stroke-width="3"/>
<line x1="41" y1="19" x2="61" y2="19" stroke="#434343" stroke-width="2"/>
<line x1="41" y1="28" x2="61" y2="28" stroke="#434343" stroke-width="2"/>
<line x1="41" y1="39" x2="69" y2="39" stroke="#434343" stroke-width="2"/>
<line x1="41" y1="56" x2="69" y2="56" stroke="#434343" stroke-width="2"/>
<line x1="41" y1="45.5" x2="55" y2="45.5" stroke="#434343"/>
<line x1="41" y1="60.5" x2="61" y2="60.5" stroke="#434343" stroke-width="3"/>
<line x1="87" y1="56" x2="101" y2="56" stroke="#434343" stroke-width="2"/>
<line x1="87" y1="67" x2="101" y2="67" stroke="#434343" stroke-width="2"/>
<line x1="87" y1="60.5" x2="103" y2="60.5" stroke="#434343" stroke-width="3"/>
<line x1="87" y1="71.5" x2="103" y2="71.5" stroke="#434343" stroke-width="3"/>
</svg>
