<svg width="123" height="56" viewBox="0 0 123 56" fill="none" xmlns="http://www.w3.org/2000/svg">
<path d="M15 0.708008H123V47.8432C123 52.2614 119.418 55.8432 115 55.8432H23C18.5817 55.8432 15 52.2615 15 47.8432V0.708008Z" fill="#00B4D8"/>
<path d="M7.10526 10.308L15 0.708008V18.308H0L7.10526 10.308Z" fill="#023E8A"/>
<mask id="mask0_1518_18733" style="mask-type:alpha" maskUnits="userSpaceOnUse" x="50" y="7" width="38" height="39">
<rect x="50" y="7.00781" width="38" height="38" fill="#D9D9D9"/>
</mask>
<g mask="url(#mask0_1518_18733)">
<path d="M62.0729 17.1415L66.5062 11.4019C66.8229 10.9797 67.1989 10.6696 67.6343 10.4717C68.0698 10.2738 68.525 10.1748 69 10.1748C69.475 10.1748 69.9302 10.2738 70.3656 10.4717C70.801 10.6696 71.177 10.9797 71.4937 11.4019L75.927 17.1415L82.6562 19.3977C83.3423 19.6088 83.8833 19.9981 84.2791 20.5654C84.675 21.1328 84.8729 21.7595 84.8729 22.4456C84.8729 22.7623 84.8267 23.079 84.7343 23.3956C84.642 23.7123 84.4902 24.0158 84.2791 24.3061L79.925 30.4811L80.0833 36.9727C80.1097 37.8963 79.8062 38.6748 79.1729 39.3081C78.5395 39.9415 77.8007 40.2581 76.9562 40.2581C76.9034 40.2581 76.6132 40.2186 76.0854 40.1394L69 38.1602L61.9145 40.1394C61.7826 40.1922 61.6375 40.2252 61.4791 40.2383C61.3208 40.2515 61.1757 40.2581 61.0437 40.2581C60.1993 40.2581 59.4604 39.9415 58.827 39.3081C58.1937 38.6748 57.8902 37.8963 57.9166 36.9727L58.075 30.4415L53.7604 24.3061C53.5493 24.0158 53.3975 23.7123 53.3052 23.3956C53.2128 23.079 53.1666 22.7623 53.1666 22.4456C53.1666 21.7859 53.3579 21.1724 53.7406 20.605C54.1232 20.0377 54.6576 19.6352 55.3437 19.3977L62.0729 17.1415ZM64.0125 19.8727L56.3333 22.4061L61.2416 29.4915L61.0833 37.0519L69 34.8748L76.9166 37.0915L76.7583 29.4915L81.6666 22.4852L73.9875 19.8727L69 13.3415L64.0125 19.8727Z" fill="white"/>
</g>
</svg>
