<svg width="123" height="56" viewBox="0 0 123 56" fill="none" xmlns="http://www.w3.org/2000/svg">
<path d="M15 0.708008H123V47.8432C123 52.2614 119.418 55.8432 115 55.8432H23C18.5817 55.8432 15 52.2615 15 47.8432V0.708008Z" fill="#494949"/>
<path d="M7.10526 10.308L15 0.708008V18.308H0L7.10526 10.308Z" fill="#434343"/>
<mask id="mask0_1518_18609" style="mask-type:alpha" maskUnits="userSpaceOnUse" x="49" y="5" width="41" height="45">
<rect x="49" y="5.1084" width="41" height="44.3989" fill="#D9D9D9"/>
</mask>
<g mask="url(#mask0_1518_18609)">
<mask id="mask1_1518_18609" style="mask-type:alpha" maskUnits="userSpaceOnUse" x="52" y="6" width="38" height="39">
<rect x="52" y="6.00879" width="38" height="38" fill="#D9D9D9"/>
</mask>
<g mask="url(#mask1_1518_18609)">
<path d="M59.9166 41.0424V37.559H82.0833V41.0424H59.9166ZM59.9166 34.9466L57.8979 20.9697C57.8451 20.9697 57.7857 20.9769 57.7198 20.9914C57.6538 21.006 57.5944 21.0132 57.5416 21.0132C56.8819 21.0132 56.3211 20.7592 55.8593 20.2512C55.3975 19.7433 55.1666 19.1264 55.1666 18.4007C55.1666 17.675 55.3975 17.0582 55.8593 16.5502C56.3211 16.0422 56.8819 15.7882 57.5416 15.7882C58.2013 15.7882 58.7621 16.0422 59.2239 16.5502C59.6857 17.0582 59.9166 17.675 59.9166 18.4007C59.9166 18.6039 59.8968 18.7926 59.8573 18.9668C59.8177 19.1409 59.7715 19.3006 59.7187 19.4457L64.6666 21.884L69.6145 14.4384C69.3243 14.2062 69.0868 13.9014 68.902 13.524C68.7173 13.1467 68.625 12.7403 68.625 12.3049C68.625 11.5792 68.8559 10.9623 69.3177 10.4544C69.7795 9.94638 70.3402 9.69238 71 9.69238C71.6597 9.69238 72.2204 9.94638 72.6823 10.4544C73.1441 10.9623 73.375 11.5792 73.375 12.3049C73.375 12.7403 73.2826 13.1467 73.0979 13.524C72.9132 13.9014 72.6757 14.2062 72.3854 14.4384L77.3333 21.884L82.2812 19.4457C82.2284 19.3006 82.1823 19.1409 82.1427 18.9668C82.1031 18.7926 82.0833 18.6039 82.0833 18.4007C82.0833 17.675 82.3142 17.0582 82.776 16.5502C83.2378 16.0422 83.7986 15.7882 84.4583 15.7882C85.118 15.7882 85.6788 16.0422 86.1406 16.5502C86.6024 17.0582 86.8333 17.675 86.8333 18.4007C86.8333 19.1264 86.6024 19.7433 86.1406 20.2512C85.6788 20.7592 85.118 21.0132 84.4583 21.0132C84.4055 21.0132 84.3461 21.006 84.2802 20.9914C84.2142 20.9769 84.1548 20.9697 84.102 20.9697L82.0833 34.9466H59.9166ZM62.6083 31.4632H79.3916L80.4208 24.1918L76.2645 26.1947L71 18.2266L65.7354 26.1947L61.5791 24.1918L62.6083 31.4632Z" fill="white"/>
</g>
</g>
</svg>
